<?xml version="1.0" encoding="utf-8"?>
<!-- Generator: Adobe Illustrator 21.1.0, SVG Export Plug-In . SVG Version: 6.00 Build 0)  -->
<svg version="1.1" xmlns="http://www.w3.org/2000/svg" xmlns:xlink="http://www.w3.org/1999/xlink" x="0px" y="0px"
	 viewBox="0 0 963 1024" style="enable-background:new 0 0 963 1024;" xml:space="preserve">
<style type="text/css">
	.st0{fill:#E9D724;stroke:#DDC72A;stroke-miterlimit:10;}
	.st1{fill:#CCCCCC;}
	.st2{fill:#6EA2D7;stroke:#0072B5;stroke-miterlimit:10;}
	.st3{fill:#0072B5;}
	.st4{fill:#ACC4E5;stroke:#90AFD3;stroke-miterlimit:10;}
	.st5{fill:#93698B;}
	.st6{fill:#82597C;}
	.st7{fill:none;stroke:#82597C;stroke-miterlimit:10;}
	.st8{fill:#6D624B;}
	.st9{fill:none;stroke:#000000;stroke-miterlimit:10;}
	.st10{fill:#5B543E;}
	.st11{fill:#686865;stroke:#595959;stroke-width:2;stroke-miterlimit:10;}
	.st12{fill:#595959;}
	.st13{fill:#A5285B;stroke:#721F48;stroke-miterlimit:10;}
	.st14{fill:none;stroke:#721F48;stroke-miterlimit:10;}
	.st15{fill:#E2D6A8;stroke:#B7AB8A;stroke-miterlimit:10;}
	.st16{fill:#B7AB8A;}
	.st17{fill:#E2D6A8;}
	.st18{fill:#BCA624;stroke:#D6C129;stroke-miterlimit:10;}
	.st19{fill:#EFDC52;stroke:#D6C129;stroke-miterlimit:10;}
	.st20{fill:#D6C129;stroke:#D6C129;stroke-miterlimit:10;}
	.st21{fill:#EDEFB1;}
	.st22{fill:none;stroke:#EA8BB1;stroke-width:2;stroke-miterlimit:10;}
	.st23{fill:#333232;stroke:#000000;stroke-miterlimit:10;}
	.st24{fill:#726E6F;stroke:#636263;stroke-miterlimit:10;}
	.st25{fill:#EADADF;}
	.st26{fill:#5B543E;stroke:#5B543E;stroke-miterlimit:10;}
	.st27{fill:#E9D724;stroke:#D6C129;stroke-miterlimit:10;}
	.st28{fill:none;stroke:#EDEFB1;stroke-miterlimit:10;}
	.st29{fill:none;stroke:#EDEFB1;stroke-width:2;stroke-miterlimit:10;}
	.st30{fill:#893874;stroke:#703463;stroke-miterlimit:10;}
	.st31{fill:#FFFFFF;}
	.st32{fill:#90AFD3;}
	.st33{fill:#FCFCFC;}
	.st34{fill:none;stroke:#EAE496;stroke-width:2;stroke-miterlimit:10;}
	.st35{fill:none;stroke:#EDEFB1;stroke-width:3;stroke-miterlimit:10;}
	.st36{fill:#E2D6A8;stroke:#CEC199;stroke-miterlimit:10;}
</style>
<g id="stars_x2F_moons">
	<polygon class="st0" points="31,64.1 34.7,71.6 42.9,72.8 36.9,78.6 38.3,86.8 31,83 23.6,86.8 25,78.6 19,72.8 27.3,71.6 	"/>
	<polygon class="st0" points="88.1,-11.3 91.8,-3.9 100,-2.7 94,3.1 95.5,11.3 88.1,7.5 80.7,11.3 82.1,3.1 76.1,-2.7 84.4,-3.9 	
		"/>
	<path class="st0" d="M-2.9-2.2c0,0,14.2-7.1,18.9,4.3S8.5,20,8.5,20S20.8,2.5-2.9-2.2z"/>
	<path class="st0" d="M108.2,65.5c0,0,14.2-7.1,18.9,4.3s-7.6,18-7.6,18S131.8,70.2,108.2,65.5z"/>
	<polygon class="st0" points="25.3,196.5 29,204 37.2,205.2 31.3,211 32.7,219.2 25.3,215.3 17.9,219.2 19.3,211 13.4,205.2 
		21.6,204 	"/>
	<polygon class="st0" points="82.4,121 86.1,128.5 94.3,129.7 88.4,135.5 89.8,143.7 82.4,139.9 75,143.7 76.4,135.5 70.5,129.7 
		78.7,128.5 	"/>
	<path class="st0" d="M-8.6,130.1c0,0,14.2-7.1,18.9,4.3c4.7,11.4-7.6,18-7.6,18S15.1,134.9-8.6,130.1z"/>
	<path class="st0" d="M102.5,197.9c0,0,14.2-7.1,18.9,4.3c4.7,11.4-7.6,18-7.6,18S126.2,202.6,102.5,197.9z"/>
	<polygon class="st0" points="192.9,67 196.6,74.5 204.8,75.7 198.9,81.5 200.3,89.7 192.9,85.8 185.5,89.7 186.9,81.5 181,75.7 
		189.2,74.5 	"/>
	<polygon class="st0" points="250,-8.5 253.7,-1 262,0.2 256,6 257.4,14.2 250,10.3 242.6,14.2 244.1,6 238.1,0.2 246.3,-1 	"/>
	<path class="st0" d="M159,0.6c0,0,14.2-7.1,18.9,4.3c4.7,11.4-7.6,18-7.6,18S182.7,5.4,159,0.6z"/>
	<path class="st0" d="M270.1,68.4c0,0,14.2-7.1,18.9,4.3s-7.6,18-7.6,18S293.8,73.1,270.1,68.4z"/>
	<polygon class="st0" points="206.4,221.6 210.1,229.1 218.3,230.3 212.4,236.1 213.8,244.3 206.4,240.5 199,244.3 200.4,236.1 
		194.5,230.3 202.7,229.1 	"/>
	<polygon class="st0" points="263.5,146.1 267.2,153.6 275.4,154.8 269.5,160.6 270.9,168.8 263.5,165 256.1,168.8 257.5,160.6 
		251.6,154.8 259.8,153.6 	"/>
	<path class="st0" d="M172.5,155.2c0,0,14.2-7.1,18.9,4.3c4.7,11.4-7.6,18-7.6,18S196.2,160,172.5,155.2z"/>
	<path class="st0" d="M283.6,223c0,0,14.2-7.1,18.9,4.3c4.7,11.4-7.6,18-7.6,18S307.3,227.7,283.6,223z"/>
	<polygon class="st0" points="21,349.5 24.7,357 32.9,358.2 26.9,364 28.3,372.2 21,368.3 13.6,372.2 15,364 9,358.2 17.3,357 	"/>
	<polygon class="st0" points="78.1,274 81.8,281.5 90,282.7 84,288.5 85.5,296.7 78.1,292.9 70.7,296.7 72.1,288.5 66.1,282.7 
		74.4,281.5 	"/>
	<path class="st0" d="M-12.9,283.1c0,0,14.2-7.1,18.9,4.3c4.7,11.4-7.6,18-7.6,18S10.8,287.9-12.9,283.1z"/>
	<path class="st0" d="M98.2,350.9c0,0,14.2-7.1,18.9,4.3c4.7,11.4-7.6,18-7.6,18S121.8,355.6,98.2,350.9z"/>
	<polygon class="st0" points="196.4,374.6 200.1,382.1 208.3,383.3 202.4,389.1 203.8,397.3 196.4,393.5 189,397.3 190.4,389.1 
		184.5,383.3 192.7,382.1 	"/>
	<polygon class="st0" points="253.5,299.1 257.2,306.6 265.4,307.8 259.5,313.6 260.9,321.8 253.5,318 246.1,321.8 247.5,313.6 
		241.6,307.8 249.8,306.6 	"/>
	<path class="st0" d="M162.5,308.2c0,0,14.2-7.1,18.9,4.3c4.7,11.4-7.6,18-7.6,18S186.2,313,162.5,308.2z"/>
	<path class="st0" d="M273.6,376c0,0,14.2-7.1,18.9,4.3c4.7,11.4-7.6,18-7.6,18S297.3,380.7,273.6,376z"/>
	<polygon class="st0" points="360.5,59 364.2,66.5 372.5,67.7 366.5,73.5 367.9,81.7 360.5,77.8 353.2,81.7 354.6,73.5 348.6,67.7 
		356.8,66.5 	"/>
	<polygon class="st0" points="417.6,-16.5 421.3,-9 429.6,-7.8 423.6,-2 425,6.2 417.6,2.3 410.3,6.2 411.7,-2 405.7,-7.8 413.9,-9 
			"/>
	<path class="st0" d="M326.7-7.4c0,0,14.2-7.1,18.9,4.3c4.7,11.4-7.6,18-7.6,18S350.3-2.6,326.7-7.4z"/>
	<path class="st0" d="M437.7,60.4c0,0,14.2-7.1,18.9,4.3c4.7,11.4-7.6,18-7.6,18S461.4,65.1,437.7,60.4z"/>
	<polygon class="st0" points="354.9,191.4 358.6,198.9 366.8,200.1 360.8,205.9 362.2,214.1 354.9,210.2 347.5,214.1 348.9,205.9 
		342.9,200.1 351.2,198.9 	"/>
	<polygon class="st0" points="412,115.9 415.7,123.4 423.9,124.6 417.9,130.4 419.3,138.6 412,134.7 404.6,138.6 406,130.4 
		400,124.6 408.3,123.4 	"/>
	<path class="st0" d="M321,125c0,0,14.2-7.1,18.9,4.3c4.7,11.4-7.6,18-7.6,18S344.6,129.7,321,125z"/>
	<path class="st0" d="M432.1,192.7c0,0,14.2-7.1,18.9,4.3c4.7,11.4-7.6,18-7.6,18S455.7,197.5,432.1,192.7z"/>
	<polygon class="st0" points="522.5,61.9 526.2,69.4 534.4,70.6 528.4,76.4 529.8,84.6 522.5,80.7 515.1,84.6 516.5,76.4 
		510.5,70.6 518.8,69.4 	"/>
	<polygon class="st0" points="579.6,-13.6 583.3,-6.1 591.5,-4.9 585.5,0.9 587,9.1 579.6,5.2 572.2,9.1 573.6,0.9 567.6,-4.9 
		575.9,-6.1 	"/>
	<path class="st0" d="M488.6-4.5c0,0,14.2-7.1,18.9,4.3s-7.6,18-7.6,18S512.3,0.2,488.6-4.5z"/>
	<path class="st0" d="M599.7,63.2c0,0,14.2-7.1,18.9,4.3s-7.6,18-7.6,18S623.3,68,599.7,63.2z"/>
	<polygon class="st0" points="536,216.5 539.7,224 547.9,225.2 541.9,231 543.3,239.2 536,235.3 528.6,239.2 530,231 524,225.2 
		532.3,224 	"/>
	<polygon class="st0" points="593.1,141 596.8,148.5 605,149.7 599,155.5 600.4,163.7 593.1,159.8 585.7,163.7 587.1,155.5 
		581.1,149.7 589.4,148.5 	"/>
	<path class="st0" d="M502.1,150.1c0,0,14.2-7.1,18.9,4.3c4.7,11.4-7.6,18-7.6,18S525.7,154.9,502.1,150.1z"/>
	<path class="st0" d="M613.2,217.8c0,0,14.2-7.1,18.9,4.3c4.7,11.4-7.6,18-7.6,18S636.8,222.6,613.2,217.8z"/>
	<polygon class="st0" points="350.5,344.4 354.2,351.9 362.5,353.1 356.5,358.9 357.9,367.1 350.5,363.2 343.2,367.1 344.6,358.9 
		338.6,353.1 346.8,351.9 	"/>
	<polygon class="st0" points="407.6,268.9 411.3,276.4 419.6,277.6 413.6,283.4 415,291.6 407.6,287.7 400.3,291.6 401.7,283.4 
		395.7,277.6 403.9,276.4 	"/>
	<path class="st0" d="M316.7,278c0,0,14.2-7.1,18.9,4.3c4.7,11.4-7.6,18-7.6,18S340.3,282.7,316.7,278z"/>
	<path class="st0" d="M427.7,345.7c0,0,14.2-7.1,18.9,4.3c4.7,11.4-7.6,18-7.6,18S451.4,350.5,427.7,345.7z"/>
	<polygon class="st0" points="526,369.5 529.7,377 537.9,378.2 531.9,384 533.3,392.2 526,388.3 518.6,392.2 520,384 514,378.2 
		522.3,377 	"/>
	<polygon class="st0" points="583.1,294 586.8,301.5 595,302.7 589,308.5 590.4,316.7 583.1,312.8 575.7,316.7 577.1,308.5 
		571.1,302.7 579.4,301.5 	"/>
	<path class="st0" d="M492.1,303.1c0,0,14.2-7.1,18.9,4.3s-7.6,18-7.6,18S515.7,307.9,492.1,303.1z"/>
	<path class="st0" d="M603.2,370.8c0,0,14.2-7.1,18.9,4.3c4.7,11.4-7.6,18-7.6,18S626.8,375.6,603.2,370.8z"/>
	<polygon class="st0" points="697.9,66.4 701.6,73.8 709.8,75 703.9,80.8 705.3,89.1 697.9,85.2 690.5,89.1 691.9,80.8 686,75 
		694.2,73.8 	"/>
	<polygon class="st0" points="755,-9.1 758.7,-1.7 766.9,-0.5 761,5.4 762.4,13.6 755,9.7 747.6,13.6 749,5.4 743.1,-0.5 
		751.3,-1.7 	"/>
	<path class="st0" d="M664,0c0,0,14.2-7.1,18.9,4.3c4.7,11.4-7.6,18-7.6,18S687.7,4.7,664,0z"/>
	<path class="st0" d="M775.1,67.7c0,0,14.2-7.1,18.9,4.3s-7.6,18-7.6,18S798.8,72.4,775.1,67.7z"/>
	<polygon class="st0" points="692.2,198.7 695.9,206.2 704.2,207.4 698.2,213.2 699.6,221.4 692.2,217.6 684.9,221.4 686.3,213.2 
		680.3,207.4 688.6,206.2 	"/>
	<polygon class="st0" points="749.4,123.2 753,130.7 761.3,131.9 755.3,137.7 756.7,145.9 749.4,142.1 742,145.9 743.4,137.7 
		737.4,131.9 745.7,130.7 	"/>
	<path class="st0" d="M658.4,132.4c0,0,14.2-7.1,18.9,4.3s-7.6,18-7.6,18S682,137.1,658.4,132.4z"/>
	<path class="st0" d="M769.5,200.1c0,0,14.2-7.1,18.9,4.3c4.7,11.4-7.6,18-7.6,18S793.1,204.8,769.5,200.1z"/>
	<polygon class="st0" points="859.9,69.2 863.5,76.7 871.8,77.9 865.8,83.7 867.2,91.9 859.9,88.1 852.5,91.9 853.9,83.7 
		847.9,77.9 856.2,76.7 	"/>
	<polygon class="st0" points="917,-6.3 920.6,1.2 928.9,2.4 922.9,8.2 924.3,16.4 917,12.6 909.6,16.4 911,8.2 905,2.4 913.3,1.2 	
		"/>
	<path class="st0" d="M826,2.8c0,0,14.2-7.1,18.9,4.3c4.7,11.4-7.6,18-7.6,18S849.6,7.6,826,2.8z"/>
	<path class="st0" d="M937.1,70.6c0,0,14.2-7.1,18.9,4.3c4.7,11.4-7.6,18-7.6,18S960.7,75.3,937.1,70.6z"/>
	<polygon class="st0" points="873.3,223.9 877,231.3 885.3,232.5 879.3,238.3 880.7,246.5 873.3,242.7 866,246.5 867.4,238.3 
		861.4,232.5 869.7,231.3 	"/>
	<polygon class="st0" points="930.5,148.4 934.1,155.8 942.4,157 936.4,162.8 937.8,171.1 930.5,167.2 923.1,171.1 924.5,162.8 
		918.5,157 926.8,155.8 	"/>
	<path class="st0" d="M839.5,157.5c0,0,14.2-7.1,18.9,4.3c4.7,11.4-7.6,18-7.6,18S863.1,162.2,839.5,157.5z"/>
	<path class="st0" d="M950.6,225.2c0,0,14.2-7.1,18.9,4.3c4.7,11.4-7.6,18-7.6,18S974.2,229.9,950.6,225.2z"/>
	<polygon class="st0" points="687.9,351.7 691.6,359.2 699.8,360.4 693.9,366.2 695.3,374.4 687.9,370.6 680.5,374.4 681.9,366.2 
		676,360.4 684.2,359.2 	"/>
	<polygon class="st0" points="745,276.2 748.7,283.7 756.9,284.9 751,290.7 752.4,298.9 745,295.1 737.6,298.9 739,290.7 
		733.1,284.9 741.3,283.7 	"/>
	<path class="st0" d="M654,285.4c0,0,14.2-7.1,18.9,4.3c4.7,11.4-7.6,18-7.6,18S677.7,290.1,654,285.4z"/>
	<path class="st0" d="M765.1,353.1c0,0,14.2-7.1,18.9,4.3s-7.6,18-7.6,18S788.8,357.8,765.1,353.1z"/>
	<polygon class="st0" points="863.3,376.9 867,384.3 875.3,385.5 869.3,391.3 870.7,399.5 863.3,395.7 856,399.5 857.4,391.3 
		851.4,385.5 859.7,384.3 	"/>
	<polygon class="st0" points="920.5,301.4 924.1,308.8 932.4,310 926.4,315.8 927.8,324.1 920.5,320.2 913.1,324.1 914.5,315.8 
		908.5,310 916.8,308.8 	"/>
	<path class="st0" d="M829.5,310.5c0,0,14.2-7.1,18.9,4.3c4.7,11.4-7.6,18-7.6,18S853.1,315.2,829.5,310.5z"/>
	<path class="st0" d="M940.6,378.2c0,0,14.2-7.1,18.9,4.3c4.7,11.4-7.6,18-7.6,18S964.2,382.9,940.6,378.2z"/>
	<path class="st0" d="M0.9,501.2c0,0,14.2-7.1,18.9,4.3c4.7,11.4-7.6,18-7.6,18S24.5,506,0.9,501.2z"/>
	<path class="st0" d="M-4.8,633.6c0,0,14.2-7.1,18.9,4.3s-7.6,18-7.6,18S18.9,638.3-4.8,633.6z"/>
	<polygon class="st0" points="85.6,502.8 89.3,510.2 97.6,511.4 91.6,517.3 93,525.5 85.6,521.6 78.2,525.5 79.7,517.3 73.7,511.4 
		81.9,510.2 	"/>
	<polygon class="st0" points="142.7,427.3 146.4,434.8 154.7,436 148.7,441.8 150.1,450 142.7,446.1 135.4,450 136.8,441.8 
		130.8,436 139,434.8 	"/>
	<path class="st0" d="M51.8,436.4c0,0,14.2-7.1,18.9,4.3c4.7,11.4-7.6,18-7.6,18S75.4,441.1,51.8,436.4z"/>
	<path class="st0" d="M162.8,504.1c0,0,14.2-7.1,18.9,4.3c4.7,11.4-7.6,18-7.6,18S186.5,508.8,162.8,504.1z"/>
	<polygon class="st0" points="99.1,657.4 102.8,664.9 111.1,666.1 105.1,671.9 106.5,680.1 99.1,676.2 91.7,680.1 93.2,671.9 
		87.2,666.1 95.4,664.9 	"/>
	<polygon class="st0" points="156.2,581.9 159.9,589.4 168.2,590.6 162.2,596.4 163.6,604.6 156.2,600.7 148.8,604.6 150.3,596.4 
		144.3,590.6 152.5,589.4 	"/>
	<path class="st0" d="M65.3,591c0,0,14.2-7.1,18.9,4.3c4.7,11.4-7.6,18-7.6,18S88.9,595.7,65.3,591z"/>
	<path class="st0" d="M176.3,658.7c0,0,14.2-7.1,18.9,4.3c4.7,11.4-7.6,18-7.6,18S200,663.5,176.3,658.7z"/>
	<path class="st0" d="M-9.1,786.6c0,0,14.2-7.1,18.9,4.3s-7.6,18-7.6,18S14.5,791.3-9.1,786.6z"/>
	<polygon class="st0" points="89.1,810.4 92.8,817.9 101.1,819.1 95.1,824.9 96.5,833.1 89.1,829.2 81.7,833.1 83.2,824.9 
		77.2,819.1 85.4,817.9 	"/>
	<polygon class="st0" points="146.2,734.9 149.9,742.4 158.2,743.6 152.2,749.4 153.6,757.6 146.2,753.7 138.8,757.6 140.3,749.4 
		134.3,743.6 142.5,742.4 	"/>
	<path class="st0" d="M55.3,744c0,0,14.2-7.1,18.9,4.3c4.7,11.4-7.6,18-7.6,18S78.9,748.7,55.3,744z"/>
	<path class="st0" d="M166.3,811.7c0,0,14.2-7.1,18.9,4.3c4.7,11.4-7.6,18-7.6,18S190,816.5,166.3,811.7z"/>
	<polygon class="st0" points="253.2,494.8 256.9,502.2 265.2,503.4 259.2,509.3 260.6,517.5 253.2,513.6 245.9,517.5 247.3,509.3 
		241.3,503.4 249.6,502.2 	"/>
	<polygon class="st0" points="310.3,419.3 314,426.8 322.3,428 316.3,433.8 317.7,442 310.3,438.1 303,442 304.4,433.8 298.4,428 
		306.7,426.8 	"/>
	<path class="st0" d="M219.4,428.4c0,0,14.2-7.1,18.9,4.3c4.7,11.4-7.6,18-7.6,18S243,433.1,219.4,428.4z"/>
	<path class="st0" d="M330.5,496.1c0,0,14.2-7.1,18.9,4.3c4.7,11.4-7.6,18-7.6,18S354.1,500.8,330.5,496.1z"/>
	<polygon class="st0" points="247.6,627.2 251.3,634.6 259.5,635.8 253.5,641.6 255,649.9 247.6,646 240.2,649.9 241.6,641.6 
		235.6,635.8 243.9,634.6 	"/>
	<polygon class="st0" points="304.7,551.7 308.4,559.1 316.6,560.3 310.6,566.2 312.1,574.4 304.7,570.5 297.3,574.4 298.7,566.2 
		292.7,560.3 301,559.1 	"/>
	<path class="st0" d="M213.7,560.8c0,0,14.2-7.1,18.9,4.3c4.7,11.4-7.6,18-7.6,18S237.4,565.5,213.7,560.8z"/>
	<path class="st0" d="M324.8,628.5c0,0,14.2-7.1,18.9,4.3c4.7,11.4-7.6,18-7.6,18S348.4,633.2,324.8,628.5z"/>
	<polygon class="st0" points="415.2,497.7 418.9,505.1 427.1,506.3 421.1,512.1 422.6,520.4 415.2,516.5 407.8,520.4 409.2,512.1 
		403.2,506.3 411.5,505.1 	"/>
	<polygon class="st0" points="472.3,422.2 476,429.6 484.2,430.8 478.3,436.6 479.7,444.9 472.3,441 464.9,444.9 466.3,436.6 
		460.4,430.8 468.6,429.6 	"/>
	<path class="st0" d="M381.3,431.3c0,0,14.2-7.1,18.9,4.3s-7.6,18-7.6,18S405,436,381.3,431.3z"/>
	<path class="st0" d="M492.4,499c0,0,14.2-7.1,18.9,4.3c4.7,11.4-7.6,18-7.6,18S516,503.7,492.4,499z"/>
	<polygon class="st0" points="428.7,652.3 432.4,659.7 440.6,660.9 434.6,666.8 436.1,675 428.7,671.1 421.3,675 422.7,666.8 
		416.7,660.9 425,659.7 	"/>
	<polygon class="st0" points="485.8,576.8 489.5,584.2 497.7,585.4 491.7,591.3 493.2,599.5 485.8,595.6 478.4,599.5 479.8,591.3 
		473.8,585.4 482.1,584.2 	"/>
	<path class="st0" d="M394.8,585.9c0,0,14.2-7.1,18.9,4.3s-7.6,18-7.6,18S418.5,590.6,394.8,585.9z"/>
	<path class="st0" d="M505.9,653.6c0,0,14.2-7.1,18.9,4.3c4.7,11.4-7.6,18-7.6,18S529.5,658.3,505.9,653.6z"/>
	<polygon class="st0" points="243.2,780.2 246.9,787.6 255.2,788.8 249.2,794.6 250.6,802.9 243.2,799 235.9,802.9 237.3,794.6 
		231.3,788.8 239.6,787.6 	"/>
	<polygon class="st0" points="300.3,704.7 304,712.1 312.3,713.3 306.3,719.2 307.7,727.4 300.3,723.5 293,727.4 294.4,719.2 
		288.4,713.3 296.7,712.1 	"/>
	<path class="st0" d="M209.4,713.8c0,0,14.2-7.1,18.9,4.3c4.7,11.4-7.6,18-7.6,18S233,718.5,209.4,713.8z"/>
	<path class="st0" d="M320.5,781.5c0,0,14.2-7.1,18.9,4.3c4.7,11.4-7.6,18-7.6,18S344.1,786.2,320.5,781.5z"/>
	<polygon class="st0" points="418.7,805.3 422.4,812.7 430.6,813.9 424.6,819.8 426.1,828 418.7,824.1 411.3,828 412.7,819.8 
		406.7,813.9 415,812.7 	"/>
	<polygon class="st0" points="475.8,729.8 479.5,737.2 487.7,738.4 481.7,744.3 483.2,752.5 475.8,748.6 468.4,752.5 469.8,744.3 
		463.8,738.4 472.1,737.2 	"/>
	<path class="st0" d="M384.8,738.9c0,0,14.2-7.1,18.9,4.3s-7.6,18-7.6,18S408.5,743.6,384.8,738.9z"/>
	<path class="st0" d="M495.9,806.6c0,0,14.2-7.1,18.9,4.3c4.7,11.4-7.6,18-7.6,18S519.5,811.3,495.9,806.6z"/>
	<polygon class="st0" points="590.6,502.1 594.3,509.6 602.6,510.8 596.6,516.6 598,524.8 590.6,520.9 583.2,524.8 584.7,516.6 
		578.7,510.8 586.9,509.6 	"/>
	<polygon class="st0" points="647.7,426.6 651.4,434.1 659.7,435.3 653.7,441.1 655.1,449.3 647.7,445.4 640.3,449.3 641.8,441.1 
		635.8,435.3 644,434.1 	"/>
	<path class="st0" d="M556.8,435.7c0,0,14.2-7.1,18.9,4.3c4.7,11.4-7.6,18-7.6,18S580.4,440.5,556.8,435.7z"/>
	<path class="st0" d="M667.8,503.4c0,0,14.2-7.1,18.9,4.3c4.7,11.4-7.6,18-7.6,18S691.5,508.2,667.8,503.4z"/>
	<polygon class="st0" points="585,634.5 588.6,642 596.9,643.2 590.9,649 592.3,657.2 585,653.3 577.6,657.2 579,649 573,643.2 
		581.3,642 	"/>
	<polygon class="st0" points="642.1,559 645.7,566.5 654,567.7 648,573.5 649.4,581.7 642.1,577.8 634.7,581.7 636.1,573.5 
		630.1,567.7 638.4,566.5 	"/>
	<path class="st0" d="M551.1,568.1c0,0,14.2-7.1,18.9,4.3c4.7,11.4-7.6,18-7.6,18S574.7,572.8,551.1,568.1z"/>
	<path class="st0" d="M662.2,635.8c0,0,14.2-7.1,18.9,4.3c4.7,11.4-7.6,18-7.6,18S685.8,640.6,662.2,635.8z"/>
	<polygon class="st0" points="752.6,505 756.2,512.5 764.5,513.7 758.5,519.5 759.9,527.7 752.6,523.8 745.2,527.7 746.6,519.5 
		740.6,513.7 748.9,512.5 	"/>
	<polygon class="st0" points="809.7,429.5 813.4,437 821.6,438.2 815.6,444 817,452.2 809.7,448.3 802.3,452.2 803.7,444 
		797.7,438.2 806,437 	"/>
	<path class="st0" d="M718.7,438.6c0,0,14.2-7.1,18.9,4.3c4.7,11.4-7.6,18-7.6,18S742.3,443.3,718.7,438.6z"/>
	<path class="st0" d="M829.8,506.3c0,0,14.2-7.1,18.9,4.3c4.7,11.4-7.6,18-7.6,18S853.4,511,829.8,506.3z"/>
	<polygon class="st0" points="766.1,659.6 769.7,667.1 778,668.3 772,674.1 773.4,682.3 766.1,678.4 758.7,682.3 760.1,674.1 
		754.1,668.3 762.4,667.1 	"/>
	<polygon class="st0" points="823.2,584.1 826.8,591.6 835.1,592.8 829.1,598.6 830.5,606.8 823.2,602.9 815.8,606.8 817.2,598.6 
		811.2,592.8 819.5,591.6 	"/>
	<path class="st0" d="M732.2,593.2c0,0,14.2-7.1,18.9,4.3s-7.6,18-7.6,18S755.8,597.9,732.2,593.2z"/>
	<path class="st0" d="M843.3,660.9c0,0,14.2-7.1,18.9,4.3c4.7,11.4-7.6,18-7.6,18S866.9,665.7,843.3,660.9z"/>
	<polygon class="st0" points="580.6,787.5 584.3,795 592.6,796.2 586.6,802 588,810.2 580.6,806.3 573.2,810.2 574.7,802 
		568.7,796.2 576.9,795 	"/>
	<polygon class="st0" points="637.7,712 641.4,719.5 649.7,720.7 643.7,726.5 645.1,734.7 637.7,730.8 630.3,734.7 631.8,726.5 
		625.8,720.7 634,719.5 	"/>
	<path class="st0" d="M546.8,721.1c0,0,14.2-7.1,18.9,4.3c4.7,11.4-7.6,18-7.6,18S570.4,725.8,546.8,721.1z"/>
	<path class="st0" d="M657.8,788.8c0,0,14.2-7.1,18.9,4.3c4.7,11.4-7.6,18-7.6,18S681.5,793.6,657.8,788.8z"/>
	<polygon class="st0" points="756.1,812.6 759.7,820.1 768,821.3 762,827.1 763.4,835.3 756.1,831.4 748.7,835.3 750.1,827.1 
		744.1,821.3 752.4,820.1 	"/>
	<polygon class="st0" points="813.2,737.1 816.8,744.6 825.1,745.8 819.1,751.6 820.5,759.8 813.2,755.9 805.8,759.8 807.2,751.6 
		801.2,745.8 809.5,744.6 	"/>
	<path class="st0" d="M722.2,746.2c0,0,14.2-7.1,18.9,4.3s-7.6,18-7.6,18S745.8,750.9,722.2,746.2z"/>
	<path class="st0" d="M833.3,813.9c0,0,14.2-7.1,18.9,4.3c4.7,11.4-7.6,18-7.6,18S856.9,818.7,833.3,813.9z"/>
	<polygon class="st0" points="922.9,515.1 926.6,522.6 934.8,523.8 928.8,529.6 930.2,537.8 922.9,534 915.5,537.8 916.9,529.6 
		910.9,523.8 919.2,522.6 	"/>
	<path class="st0" d="M889,448.7c0,0,14.2-7.1,18.9,4.3c4.7,11.4-7.6,18-7.6,18S912.6,453.5,889,448.7z"/>
	<polygon class="st0" points="917.2,647.5 920.9,655 929.1,656.2 923.2,662 924.6,670.2 917.2,666.3 909.8,670.2 911.2,662 
		905.3,656.2 913.5,655 	"/>
	<path class="st0" d="M883.3,581.1c0,0,14.2-7.1,18.9,4.3c4.7,11.4-7.6,18-7.6,18S907,585.9,883.3,581.1z"/>
	<polygon class="st0" points="912.9,800.5 916.6,808 924.8,809.2 918.8,815 920.2,823.2 912.9,819.3 905.5,823.2 906.9,815 
		900.9,809.2 909.2,808 	"/>
	<polygon class="st0" points="970,725 973.7,732.5 981.9,733.7 975.9,739.5 977.3,747.7 970,743.8 962.6,747.7 964,739.5 958,733.7 
		966.3,732.5 	"/>
	<path class="st0" d="M879,734.1c0,0,14.2-7.1,18.9,4.3s-7.6,18-7.6,18S902.6,738.9,879,734.1z"/>
	<path class="st0" d="M9.1,934.4c0,0,14.2-7.1,18.9,4.3s-7.6,18-7.6,18S32.7,939.2,9.1,934.4z"/>
	<polygon class="st0" points="112.9,958.2 116.6,965.7 124.9,966.9 118.9,972.7 120.3,980.9 112.9,977 105.6,980.9 107,972.7 
		101,966.9 109.3,965.7 	"/>
	<polygon class="st0" points="170.1,882.7 173.7,890.2 182,891.4 176,897.2 177.4,905.4 170.1,901.6 162.7,905.4 164.1,897.2 
		158.1,891.4 166.4,890.2 	"/>
	<path class="st0" d="M79.1,891.8c0,0,14.2-7.1,18.9,4.3c4.7,11.4-7.6,18-7.6,18S102.7,896.6,79.1,891.8z"/>
	<path class="st0" d="M190.2,959.6c0,0,14.2-7.1,18.9,4.3c4.7,11.4-7.6,18-7.6,18S213.8,964.3,190.2,959.6z"/>
	<path class="st0" d="M47.8,1021.9c0,0,14.2-7.1,18.9,4.3c4.7,11.4-7.6,18-7.6,18S71.4,1026.7,47.8,1021.9z"/>
	<polygon class="st0" points="261.4,928 265.1,935.5 273.3,936.7 267.4,942.5 268.8,950.7 261.4,946.8 254,950.7 255.4,942.5 
		249.5,936.7 257.7,935.5 	"/>
	<polygon class="st0" points="318.5,852.5 322.2,860 330.4,861.2 324.5,867 325.9,875.2 318.5,871.3 311.1,875.2 312.5,867 
		306.6,861.2 314.8,860 	"/>
	<path class="st0" d="M227.5,861.6c0,0,14.2-7.1,18.9,4.3s-7.6,18-7.6,18S251.2,866.3,227.5,861.6z"/>
	<path class="st0" d="M338.6,929.3c0,0,14.2-7.1,18.9,4.3s-7.6,18-7.6,18S362.3,934.1,338.6,929.3z"/>
	<polygon class="st0" points="442.5,953.1 446.2,960.6 454.4,961.8 448.5,967.6 449.9,975.8 442.5,971.9 435.1,975.8 436.5,967.6 
		430.6,961.8 438.8,960.6 	"/>
	<polygon class="st0" points="499.6,877.6 503.3,885.1 511.5,886.3 505.6,892.1 507,900.3 499.6,896.4 492.2,900.3 493.6,892.1 
		487.7,886.3 495.9,885.1 	"/>
	<path class="st0" d="M408.6,886.7c0,0,14.2-7.1,18.9,4.3c4.7,11.4-7.6,18-7.6,18S432.3,891.4,408.6,886.7z"/>
	<path class="st0" d="M519.7,954.4c0,0,14.2-7.1,18.9,4.3s-7.6,18-7.6,18S543.4,959.2,519.7,954.4z"/>
	<polygon class="st0" points="314.2,1005.5 317.9,1013 326.1,1014.2 320.1,1020 321.5,1028.2 314.2,1024.3 306.8,1028.2 308.2,1020 
		302.2,1014.2 310.5,1013 	"/>
	<path class="st0" d="M223.2,1014.6c0,0,14.2-7.1,18.9,4.3c4.7,11.4-7.6,18-7.6,18S246.8,1019.3,223.2,1014.6z"/>
	<polygon class="st0" points="598.8,935.3 602.5,942.8 610.7,944 604.8,949.8 606.2,958 598.8,954.1 591.4,958 592.8,949.8 
		586.9,944 595.1,942.8 	"/>
	<polygon class="st0" points="655.9,859.8 659.6,867.3 667.8,868.5 661.9,874.3 663.3,882.5 655.9,878.7 648.5,882.5 649.9,874.3 
		644,868.5 652.2,867.3 	"/>
	<path class="st0" d="M564.9,868.9c0,0,14.2-7.1,18.9,4.3c4.7,11.4-7.6,18-7.6,18S588.6,873.7,564.9,868.9z"/>
	<path class="st0" d="M676,936.7c0,0,14.2-7.1,18.9,4.3c4.7,11.4-7.6,18-7.6,18S699.6,941.4,676,936.7z"/>
	<polygon class="st0" points="779.9,960.4 783.6,967.9 791.8,969.1 785.8,974.9 787.3,983.1 779.9,979.3 772.5,983.1 773.9,974.9 
		767.9,969.1 776.2,967.9 	"/>
	<polygon class="st0" points="837,884.9 840.7,892.4 848.9,893.6 843,899.4 844.4,907.6 837,903.8 829.6,907.6 831,899.4 
		825.1,893.6 833.3,892.4 	"/>
	<path class="st0" d="M746,894c0,0,14.2-7.1,18.9,4.3c4.7,11.4-7.6,18-7.6,18S769.7,898.8,746,894z"/>
	<path class="st0" d="M857.1,961.8c0,0,14.2-7.1,18.9,4.3c4.7,11.4-7.6,18-7.6,18S880.7,966.5,857.1,961.8z"/>
	<polygon class="st0" points="651.5,1012.8 655.2,1020.3 663.5,1021.5 657.5,1027.3 658.9,1035.5 651.5,1031.7 644.2,1035.5 
		645.6,1027.3 639.6,1021.5 647.9,1020.3 	"/>
	<path class="st0" d="M560.6,1021.9c0,0,14.2-7.1,18.9,4.3c4.7,11.4-7.6,18-7.6,18S584.2,1026.7,560.6,1021.9z"/>
	<polygon class="st0" points="801.2,1012.7 804.9,1020.1 813.2,1021.3 807.2,1027.1 808.6,1035.3 801.2,1031.5 793.8,1035.3 
		795.3,1027.1 789.3,1021.3 797.5,1020.1 	"/>
	<polygon class="st0" points="931,948.3 934.7,955.8 943,957 937,962.8 938.4,971 931,967.2 923.7,971 925.1,962.8 919.1,957 
		927.3,955.8 	"/>
	<path class="st0" d="M897.2,882c0,0,14.2-7.1,18.9,4.3s-7.6,18-7.6,18S920.8,886.7,897.2,882z"/>
</g>
<g id="shadow">
	<path class="st1" d="M242,833c0,0,42-96.4,56.7-97.4c0,0-10.3-83.9-22.8-96.4c0,0-9.3,7-16.6,3.3c0,0-64.6,38.8-43.3-43.8
		c0,0,3.3-34.6,54-66.6s40.2-28,40.2-28s3.5-4.7,0-18s15.4-16.6,15.4-16.6s39.2-17.7,22.2-29.9c0,0-38.7-23.5-29.4-36.8
		s18.5-31.5,18.5-31.5s-9.2-17.5,0.8-29.2L316,319c0,0-18-17-2-25.5s1.2-25.2,1.2-25.2s-7.1-24,1.8-42.2c0,0-12.2-23-0.5-37
		c0,0,46-71.5,78.5-89.2l3.8-13.5c0,0,5.3,4.8,5.4,9.8c0,0,28.1-8.8,49.1-7l10.2-4.8v4.5c0,0,22.8-1,36.8,8.5l54.2,24
		c0,0,17.2,3.9,25.2,21.4s16.5,17.3,16.5,17.3s12.8,2,19,27c0,0,25.2,29,7.2,44.8c0,0,29,22.8,13.2,44.5l-4.8,47
		c0,0,38.2,11,35.5,30.2s-8.5,37.8-8.5,37.8s-2,19.2,10.5,22.5s23.2,19.8,23.2,19.8s5.5,10.8-7.5,24c0,0-5.8,16.5-4.2,25.5
		l18.5,24.3c0,0,24.5,48.7,24.5,55.9s21.2,40.1,21.2,40.1s26.2,45.9,27.2,54.9c0,0,17.8,34.8-8.8,44.2c0,0-11.5,3-18.8,2.5
		c0,0-22.8,71.5-27.8,75.5c0,0,15.8,23,13.2,33c0,0-16.3,5-18.2,27.5c-1.8,22.5-8.5,31.8-8.5,31.8s-12.6,17.5-28.8,12s-57-15-57-15
		s-30.8-4.8-58,25.8s-59,28.8-59,28.8s-18.2-2.2-47.2-20.8s-46.8-8.8-46.8-8.8s-45,27-65.5,6.8S309.4,866,309.4,866
		s-18.4-13.2-27.1-11S247.5,847.4,242,833z"/>
</g>
<g id="table">
	<path class="st2" d="M259.3,819.5c0,0,42.6-91.4,54.4-93.5s107.5-18.6,115.4-9.8s123.3-3.9,123.3-3.9s97.3,2.8,104,12
		c0,0,19.7,16,42.7,44.3c0,0,11.7,18.8,12.3,33.8c0,0-16.1,4-16.7,27.5s-10.1,33.5-10.1,33.5s-13.5,17-38,5s-52.5-12-52.5-12
		S557,876,541.5,891s-39,20-39,20s-17.2,1-57.8-27c0,0-16.2-9-35.7-0.5s-35,13-35,13s-13.5,3.5-24-10S321.5,853,321.5,853
		s-16-13.5-26-10S259.3,819.5,259.3,819.5z"/>
	<path class="st3" d="M309.4,845.2c0,0,28.1-62.7,26.6-66.2s1.5,3.5,1.5,3.5s-9.5,69.5-16,70.5L309.4,845.2z"/>
	<path class="st3" d="M410.5,882.9c0,0,13-66.7,21.9-67.4c0,0,7.3-11.9,14.8,70.2C447.1,885.7,431.4,874.5,410.5,882.9z"/>
	<path class="st3" d="M580.1,864.3c0,0-2.1-64.3,3.8-62.6c5.8,1.7,22.3,55.7,22.3,55.7l-12.2-0.9L580.1,864.3z"/>
	<path class="st3" d="M697.3,816.3c0,0-25-24.5-28-48.5c0,0,26.5,37,33.5,40C702.8,807.8,698.7,812.2,697.3,816.3z"/>
	<path class="st3" d="M542.3,767.8c0,0,81.1-8.5,107.6-37.8C649.9,730,625.7,769.3,542.3,767.8z"/>
	<path class="st3" d="M319.7,738.6c0,0,25.5,40.1,174.3,31.8C493.9,770.3,357.3,775.5,319.7,738.6z"/>
</g>
<g id="ball_outline">
	<ellipse class="st4" cx="487.3" cy="639.6" rx="96.6" ry="96"/>
</g>
<g id="jacket">
	<path class="st5" d="M467.5,439.5L456,438c0,0-45,24-57.5,10.5L383,452l-62.3,54.5c0,0-46.1,22.2-56.4,39.2c0,0-27,23-24.7,39
		c0,0-14.7,35-3.3,53.7c0,0,10.7,14.3,33.7-1.7l19.7-12c0,0,24.3,56,24,101.3c0,0,87-16,110.3-12c0,0-51.3-39.3-26.3-104.7
		c0,0,23.2-51,47.3-56.3c0,0,73.9-26.9,116.7,25.7c0.6,0.8,1.2,1.5,1.8,2.3c42.5,55.7,0,119,0,119l-11.2,12.3c0,0,87.3,0.7,104,12
		c16.7,11.3,42.7,44.3,42.7,44.3l25.7-72c0,0,42.3,0,28.3-37.7s-14-37.7-14-37.7L719.7,590l-31.3-73.3c0,0-10.3-25.7-23.8-36.2
		c0,0-8.5-33.8-38.5-12c0,0-13.3-10.8-43-15.5s-42.7-5.3-42.7-5.3L467.5,439.5z"/>
	<path class="st6" d="M637.7,507.3c0,0,25.7,45.7,27,66.7L637.7,507.3z"/>
	<path class="st7" d="M687,605.7h14.7c0,0,19.7,24.7,21.7,40.3c0,0,0-18-15.3-35.7c0,0,20.3,1.3,24.7,10.7"/>
	<path class="st6" d="M632.7,652c0,0,33.7,40.3,78.7,43.3"/>
	<path class="st6" d="M622.2,716.2c0,0,23.9-25.2,26.1-36.2l5-3.3c0,0-3.7,23.8-22.3,39.6H622.2z"/>
	<path class="st6" d="M368.6,525.7c0,0,17.4-34,21.9-34.6l0.5,7.5L368.6,525.7z"/>
	<path class="st7" d="M330.7,585c0,0-22.7,32-41,39.7"/>
	<path class="st7" d="M239.7,584.7c0,0,5.3-28.7,28.3-34.7s35.1-10,52.7-7.7"/>
	<path class="st6" d="M380.1,715.9c0,0-44.1-26.9-64.7-91.2c0,0,16.3,71.7,53.3,92.7L380.1,715.9z"/>
	<path class="st8" d="M538.5,438.5c0,0,14.8-10.2,17.5,2s0,0,0,0l-2.7,8.8l-13-1.7C540.3,447.7,541.1,437.3,538.5,438.5"/>
</g>
<g id="hair">
	<path class="st9" d="M573,385"/>
	<path class="st8" d="M335.3,279c0,0-2.8,16.5-12.8,23.5S348,339,348,339s2,6-2.5,9s2.9,22.5,2.9,22.5S325,404,330.5,410
		s-8.5-3.5,29.5,31c0,0,9,11.5-17.5,21s-19,24-19,24s9.4,10.5-2.8,20.5c0,0,62.3-46,62.3-54.5c0,0,19,9,12,24s-4,22.5-4,22.5l9,8
		c0,0-7.5-16.5,3-22c0,0,12.5-19.5-4.5-36c0,0,10,14,57.5-10.5l11.5,1.5l71-1c0,0,13.5-8,17.5,2c0,0-12,13.5,14.5,36.5
		c0,0,4,1-10,18.5s30,32,30,32s-18.5-21.5,0-26.5c0,0,9-12-8-23c0,0-7-23,0.5-25c0,0,38.5,9.5,43,15.5c0,0,26.5-23,38.5,12
		c0,0,3-34,12-34c0,0,8.5-25-30.5-39.5c0,0-3-24.5,4-42c0,0,15-29-29.5-38.5c0,0,0.5-52.5,8-69S573,222.3,573,222.3l-136.2-46.4
		c0,0-34.4-36.1-71.8,11.1S335.3,279,335.3,279z"/>
	<path class="st10" d="M335.3,279l1.7,14.8c0,0-17,14.2,3,27c0,0,10,6.5,12.5,10.5c0,0-0.5-28-13.2-38.5l-1.2-16.2L335.3,279z"/>
	<path class="st10" d="M358,378.5c0,0-8.2,14.8-11.2,15s-4.8,8-4.8,8s-2.5,3,25.2,38.8c0,0,2.5,20.5-14.2,29.2S332.2,481,332.2,481
		s2.6,14.9,0,16.8s52.2-40.1,50.8-45.8c0,0-11.8-16-9.2-26.8c0,0,0.2-35-5.5-37.8S358,378.5,358,378.5z"/>
	<path class="st10" d="M378,321.8c0,0,2.8,7-4.5,12.2s-4,16.5-4,16.5l16.2,29.2c0,0,8.8,12.5,2.2,32.8s10.5,36,10.5,36
		s11.8,13.8,57.5-10.5l11.5,1.5l8.7-0.1l-1.7-35.6c0,0-66.2,2.8-68.5-20L378,321.8z"/>
	<path class="st10" d="M583,453c0,0,20.7-20,3-47.7c0,0-5.4-23.2,7.1-26.6c0,0,30.2-29.1,17.2-44.1l-12-26.7l18,27.3
		c0,0,23.7,7.7,18.3,33c-5.3,25.3,0.8,41.3,0.8,41.3s11.6,18,23.6,22.7c12,4.7,0,37,0,37s-10.7-18-33-0.9
		C626,468.5,612.7,457.7,583,453z"/>
	<path class="st10" d="M583,258.8l2.8-14.8c0,0,3.2,11.5,1.2,14.8H583z"/>
	<polyline class="st8" points="554.3,370.7 525.7,395 525.5,399.2 551.8,378.8 554.3,370.7 	"/>
</g>
<g id="turban">
	<path class="st11" d="M405.3,175.9c0,0-20.6,60.1-70,103.1c0,0-16.3-31.5-5-51.6c0,0-16-25.7,12-54.3l44.7-55.4
		c0,0,38.7-37.8,104-16.2s75.7,37.1,75.7,37.1s12.3,25.4,28.7,30.8c0,0,9.7,10.8,11,22.4c0,0,18,24.3,9,42.3c0,0-45.3-4-77-16.3
		c0,0-85-14.2-111.8-43.2l-15.3-9.5L405.3,175.9z"/>
	<path class="st12" d="M437.8,156.5c0,0,6,3.2,18,1.7L437.8,156.5z"/>
	<path class="st12" d="M435.6,166.8c0,0,4.5,6.1,11.2,5.2C446.8,171.9,438.1,176,435.6,166.8z"/>
	<path class="st12" d="M390.8,162.3c0,0,11.9-2.4,12.7-4.1C403.5,158.2,396.8,165.6,390.8,162.3z"/>
	<path class="st12" d="M335.2,222.2c0,0,47.9-29.3,64.8-54.2C400,168,363.8,224.5,335.2,222.2z"/>
	<path class="st12" d="M451.2,149.3c0,0,112.4,27.1,121.4,11.1C572.7,160.4,488.3,159.8,451.2,149.3z"/>
	<path class="st12" d="M474,166.8c0,0,98,35.6,128.3,30.2C602.3,197,550.6,214.5,474,166.8z"/>
</g>
<g id="feathers">
	<path class="st13" d="M421.5,144.6c0,0,3.2-38.8,14.8-44.2l0.8,7.2c0,0,11-15.5,28.8-16.5c0,0,1.1,8.8-11.4,21c0,0,6.1-3,8.6-3.5
		c0,0,3.2,6-12.6,16.8c0,0,13.2-4.1,3.6,4.9c0,0-7.2,13.5-22,17.6S421.5,144.6,421.5,144.6z"/>
	<path class="st9" d="M407,112"/>
	<path class="st14" d="M426.5,142.7c0,0,1.3-2.4,3.4-6.1c6.2-10.9,19.3-33.1,24.7-34.9"/>
	<path class="st14" d="M432.3,117.8c0,0-4.1,11.2-2.5,18.8c0,0,5.3-0.8,12-9.4"/>
	<path class="st14" d="M440.3,119.1c0,0-0.9-8.9,4.3-13.6"/>
	<path class="st14" d="M437.8,123.2c0,0,9.2-6,10.3-8.3"/>
	<path class="st13" d="M413.1,146.4c0,0-17.1-16.9-15.7-27.4c0,0,3.5,1,4.8,3.2c0,0-2.8-20.4,4.5-29c0,0,6.1,6.1,6.4,17.5
		c0,0,0.4-7.1,2.8-7c2.3,0.1,3.8,16.1,3.8,16.1s2.6-10.7,4.5,0c1.9,10.7,0.6,23.6,0.6,23.6S423.6,154.3,413.1,146.4z"/>
	<path class="st14" d="M406.4,106c0,0,3.4,31.8,11.9,38.6"/>
	<path class="st14" d="M404.2,114.4c0,0,1.3,9.2,5.6,10.9"/>
	<path class="st14" d="M404.2,124c0,0,2,11.5,10,14.8"/>
	<path class="st14" d="M411.2,116.1c0,0,1.6,10.2-0.4,13.2"/>
	<path class="st14" d="M416.2,124.6c0,0,3.4,16.9,0.6,18.4"/>
</g>
<g id="ear">
	<path class="st15" d="M598.3,308c0,0,18.7-36.5-15.3-49.2c0,0-0.7,5.9-0.3,13.8c0.5,8.5,2.4,19.4,8.1,27.8
		C592.9,303.3,595.3,305.9,598.3,308z"/>
	<path class="st16" d="M591.8,298c0,0-2.8-23.8-8.8-22.2C583,275.8,593.5,269.8,591.8,298z"/>
</g>
<g id="head">
	<path class="st17" d="M370,279c0,0,6-17,15.7-23.3c0,0,22-41.7,23.5-62.7c0,0,27.4,39.3,56.6,36.7l-8.4-7.4c0,0,14,8.4,59.3,9.7
		c0,0,14.3,2,17,17.3c2.7,15.3,13.7,34,13.7,34L576,316c0,0,13,12.9,0,29.1c-13,16.2-21.7,25.6-21.7,25.6l-2.6,8.1l-26.2,20.5v10.4
		c0,0,17.2,23.4,14.8,38c0,0-14.3,23.7-41.3,24.7s-31.5-32.8-31.5-32.8l8.7-0.1l-1.7-35.6c0,0-64.8,1.4-68.5-20l-28-62
		C378,321.8,364.3,290.9,370,279z"/>
	<polygon class="st8" points="554.3,370.7 525.7,395 525.5,399.2 551.8,378.8 	"/>
</g>
<g id="button">
	<path class="st18" d="M402.1,175.8c0,0-5.1-41.7,31.1-26.5c0,0,11.5,17.3-6.8,25.5S402.1,175.8,402.1,175.8z"/>
	<polygon class="st9" points="406.4,160.4 409.2,165.2 417.1,165.8 422.9,161.5 422.9,153.2 414.6,150.6 409.2,153.5 	"/>
	<path class="st19" d="M406.4,177.6l2.8-12.4l7.9,0.5l1.2,11.9C418.3,177.6,409.3,179.9,406.4,177.6z"/>
	<polygon class="st19" points="422.9,161.5 417.1,165.8 418.3,177.6 429.5,173.2 	"/>
	<path class="st19" d="M422.9,161.5v-8.2l10.4-4c0,0,10.3,14-3.8,23.9L422.9,161.5z"/>
	<path class="st19" d="M414.6,150.6l-0.4-4c0,0,7.5-2.8,19,2.7l-10.4,4L414.6,150.6z"/>
	<path class="st19" d="M409.2,153.5l-2.8-1.2c0,0,3.8-5.6,7.8-5.7l0.4,4L409.2,153.5z"/>
	<path class="st20" d="M406.4,160.4l-4.2,4.2c0,0-3.5,13.1,4.2,13l2.8-12.4L406.4,160.4z"/>
	<polygon class="st19" points="406.4,160.4 409.2,165.2 417.1,165.8 422.9,161.5 422.9,153.2 414.6,150.6 409.2,153.5 	"/>
	<path class="st21" d="M433.2,153.5l-0.8,12.2C432.5,165.8,436.1,161.9,433.2,153.5z"/>
	<polygon class="st21" points="406.4,160.4 417.1,151.4 418.8,152 407.9,161.5 	"/>
	<polygon class="st21" points="409.2,165.2 420.9,152.6 422.9,153.2 411.2,165.2 	"/>
</g>
<g id="nose_x2C__mouth_x2C__cheeks_x2C__chin">
	<line class="st22" x1="416.3" y1="364.7" x2="425.7" y2="369.3"/>
	<line class="st22" x1="422.5" y1="359.7" x2="433.2" y2="364.7"/>
	<line class="st22" x1="519.6" y1="333.7" x2="528.9" y2="338.4"/>
	<line class="st22" x1="525.7" y1="328.7" x2="536.4" y2="333.7"/>
	<path class="st9" d="M464.2,356.5c0,0,1.2-3.8,6.8-3.1C471,353.4,463.2,350.3,464.2,356.5z"/>
	<path class="st23" d="M480.8,374.8c0,0,32.4-11.1,34.4-19.6C515.2,355.2,519,378.2,480.8,374.8z"/>
	<path class="st9" d="M498.7,385.5c0,0,4.7,1.4,7.1-0.9"/>
</g>
<g id="eyes">
	
		<ellipse transform="matrix(0.9479 -0.3187 0.3187 0.9479 -84.4219 149.9571)" class="st24" cx="416.1" cy="333" rx="12.3" ry="20.4"/>
	
		<ellipse transform="matrix(0.9479 -0.3187 0.3187 0.9479 -68.2535 178.8297)" class="st24" cx="512.4" cy="298" rx="12.3" ry="20.4"/>
	<circle class="st25" cx="414.8" cy="325.9" r="3.9"/>
	<circle class="st25" cx="419.9" cy="320.9" r="1.9"/>
	<circle class="st25" cx="510" cy="292.9" r="3.9"/>
	<circle class="st25" cx="515.2" cy="287.8" r="1.9"/>
</g>
<g id="eyebrows_and_eyelashes">
	<path class="st26" d="M471.2,274.8c0,0,11.1-20,18.5-24.2s9.3-4.5,9.3-4.5s8.9-2.9,20.5,5.2c0,0-19.5-5.9-29.1,4.6
		S471.2,274.8,471.2,274.8z"/>
	<path class="st26" d="M418.7,284.2c0,0-20.4-14.1-33.3-12.5c-12.9,1.6-15.3,7.3-15.3,7.3l-1.2,5.2c0,0,5.2-7.4,18.1-7.6
		C399.7,276.3,418.7,284.2,418.7,284.2z"/>
	<path d="M490,303.6c0,0-1.5-16.4,6-24.6c0,0,7.4-9.5,18.4-10.9c0,0,15.2-4.6,15.4-6.1c0,0,0.1,6.6-7.2,13.6c0,0,6.2,0.4,8.1-2.5
		c0,0,1.8,7.8-10.1,10.6c0,0-11.4-2.5-15.5,3.8L490,303.6z"/>
	<path d="M429.5,322.8c0,0-7.4-17.5-24.8-19.8c0,0-11.5-0.9-17.8,3.8c0,0-10.8,3.9-12.6,2.6s2,6.1,13.4,6.9c0,0-1.6,3-8.5,2.9
		c0,0,3.2,4.2,8.4,3.6s9.8-3,9.8-3S413.1,315.5,429.5,322.8z"/>
</g>
<g id="chokers">
	<path class="st19" d="M469.5,422.2c0,0-6-12.2,4-14.8c0,0,33.2,14.5,54.8,1.2c0,0,11.7-2.9,7,13.5
		C535.2,422.2,509.8,437.5,469.5,422.2z"/>
	<path class="st27" d="M467.5,439.5c0,0-4.8-12.5,3.5-13.2c0,0,33.5,13.5,62.5,0c0,0,9.2-1.8,5,12.2
		C538.5,438.5,505.2,456.2,467.5,439.5z"/>
	<path class="st28" d="M474.9,412.5c0,0,2.5,3.3,18.8,2.5"/>
	<path class="st29" d="M477.8,433c0,0,18.8,6.2,32.8,2.2"/>
</g>
<g id="shirt">
	<path class="st30" d="M467.5,439.5c0,0-25.5,78.5-22.5,113.5c0,0,76.5-27,118.5,28l-23.2-133.3
		C540.3,447.7,488.5,512.5,467.5,439.5z"/>
</g>
<g id="bracelets">
	<path class="st27" d="M286,548.2c0,0,7.2-12,12.7-12s9.8-1.7,11,6c0,0-12.7,3.5-14.8,19.8c-2.2,16.3-0.2,27.3-0.2,27.3
		s2.5,14.7,13.8,18.5c0,0,7.6,2.2,16.3-15.1c0,0,4,17.8-6.8,23.5c-10.8,5.7-20,3.7-20,3.7S268.3,603.3,286,548.2z"/>
	<path class="st27" d="M263,558.8c0,0,7.8-18,17.4-17.2c9.6,0.9,5.6,6.5,5.6,6.5s-16,10.8-13.5,40c0,0-0.8,13.2,2.4,21.7
		c3.3,8.5,7.6,13.7,7.6,13.7s14.8-1.2,8.2,10c0,0-3.5,3.3-8,2.3S271,630,271,630s-12.7-19.8-11.5-37.5
		C259.5,592.5,258,567.7,263,558.8z"/>
	<path class="st27" d="M653,606.4c0,0-5.4-5.9-9.6-5.4c0,0-1.1-6.9,6.1-6.9s11,3.1,11,3.1s11,9.2,11.5,31.1s-4,34.9-4,34.9
		s-8.6,19-22.8,15.8s-16.9-13-16.9-13s-1.4-12.6,0-17s4.3,8.5,4.3,8.5s5.8,8.6,12.6,8.1s12.1-15.6,12.1-15.6s3.9-21.6,0.6-32.9
		S653,606.4,653,606.4z"/>
	<path class="st27" d="M666.4,602.8c0,0,1-8.2,5.7-7.2c4.7,1,9,3,9,3s7.9,8.6,10.6,20.1s3,31.4,3,31.4s-3,29.9-9.5,33.2
		c0,0-4.6,8.9-14,10.6s-9.9-6.5-9.9-6.5s0.5-16.8,6.5-8c6,8.8,11.9-19.5,11.9-19.5s3-31.8-1.7-41.6S666.4,602.8,666.4,602.8z"/>
</g>
<g id="ball_insides">
	<ellipse transform="matrix(0.5 -0.866 0.866 0.5 -302.8727 663.4574)" class="st31" cx="423.1" cy="594" rx="22" ry="8.3"/>
	<path class="st32" d="M459.6,581c0,0,9.2-13.2,3.5,1.4s15,11.8,15,11.8s8.8-1.5,8.4-8.6s-1.9-11.6-1.9-11.6s-3.5-12.4,5.9-2.9
		s-3.2,24.1-3.2,24.1s-11.5,6.2-22.8,2S459.6,581,459.6,581z"/>
	<path class="st31" d="M492,721.2c0,0,78,11.4,79.3-75.2C571.3,646,564,716.5,492,721.2z"/>
	<path class="st32" d="M480.7,655.4c0.3,1.8,1.3,3.5,2.8,4.6c4.8,3.8,14.8,13.4-4.4,15.2c-23.2,2.1-18.3-27-18.3-27
		s17.2-32.2,47.3-8.6c31.2,24.5,0,49.9,0,49.9s-27.6,19.1-51.4,1.2c-19.4-14.6-18.7-28.9-18.1-31.5c0.1-0.6,0,3.7,0,3.1
		c-0.2-4.6,0.3-22.4,16.6-37.2c18.8-17.2,38-17.2,38-17.2s30.7-9.8,45.5,25.5c14.8,35.3-5.7,44.7-5.7,44.7s-7,1.5-3.3-14
		c3.7-15.5,0.3-21.7,0.3-21.7s-8.2-25.8-31.8-25.5s-37,19.3-37,19.3s-13.3,10.7-12,22.3c1.3,11.7,7.8,17,7.8,17s22.3,17.7,38,8.2
		c15.7-9.5,0.2-28.4,0.2-28.4S478.9,643.6,480.7,655.4z"/>
	<circle class="st33" cx="416.5" cy="648.8" r="1.2"/>
	<circle class="st31" cx="414.9" cy="676.6" r="1.3"/>
	<circle class="st33" cx="443.1" cy="703.5" r="1.2"/>
	<circle class="st33" cx="467.1" cy="709.3" r="1.5"/>
	<circle class="st33" cx="508" cy="710.4" r="1.1"/>
	<circle class="st33" cx="525.9" cy="697.9" r="1.2"/>
	<circle class="st33" cx="553.3" cy="671.7" r="1.2"/>
	<circle class="st33" cx="519.2" cy="638" r="1.1"/>
	<circle class="st33" cx="498.4" cy="626.9" r="1.2"/>
	<circle class="st33" cx="440.4" cy="635" r="1.3"/>
	<circle class="st33" cx="419.6" cy="613.3" r="1.3"/>
	<circle class="st33" cx="449.8" cy="600" r="1.4"/>
	<circle class="st33" cx="476.1" cy="584.4" r="1.4"/>
	<circle class="st33" cx="500.1" cy="567.7" r="1.4"/>
	<ellipse class="st33" cx="513.4" cy="586.6" rx="1.5" ry="1.2"/>
	<circle class="st33" cx="445.5" cy="571.7" r="1.4"/>
	<circle class="st33" cx="483.9" cy="680.9" r="1.4"/>
</g>
<g id="ball_base">
	<path class="st0" d="M426.3,721.7l2.7-5.5c0,0,63,20.9,115,0l4.3,9.3C548.3,725.5,487,746.2,426.3,721.7z"/>
	<path class="st0" d="M426.3,719.7h-4.7l-8.1,21.6c0,0,75.4,27.1,146.4,0l-7.9-21.6l-3.8,3.8C548.3,723.5,483.3,748.5,426.3,719.7z"
		/>
	<line class="st34" x1="551.1" y1="725.7" x2="553.5" y2="738"/>
	<path class="st35" d="M418.3,738.3c0,0,29.7,10.7,52.7,10.3"/>
</g>
<g id="hands">
	<path class="st36" d="M637.8,601c0,0,13.7,27.5-7.3,49.1l-15.2-7.1c0,0-33,2.2-38.5,0c0,0-37-7.8-41.5-14.5l37-0.5
		c0,0,2-0.5-0.2-1.1l-32.8-2.1c0,0-24.3-5.2-20.5-9.5c0,0,4.8-1.5,36.5-3l4.2-0.2c0,0,3.7-1-0.2-1.1c-4-0.1-13-0.1-13-0.1l-27.8,0.7
		c0,0-16.7-0.3,0-6c0,0,17.1-7.7,23.7-7.3l20.1-3l-28.4-0.6c0,0-26.4-5.1,0.8-7.1l29-5.4c0,0,11.5-2.1,21.6,2.9s41.1,15.6,41.1,15.6
		L637.8,601z"/>
	<path class="st36" d="M332.2,582.5c0,0-2.8,5.2-4.2,0c0,0-20.8-21.7-5-40.8c0,0,34.2-15.9,43-14.2c0,0,5.5-2.4,22-1.8
		c0,0,14-1.4,17.2-2.9c0,0,11.8-2.5,4.2,6.5c0,0-3.8,6-24.5,9c0,0-1.8,0.9,0.4,1.3s15.1,0.8,15.1,0.8l12.1,1.4
		c0,0,20.8,8.9,25.1,13.5s4.9,6.4,4.9,6.4s-7.3,1-14.2-1.6c-6.8-2.6-16.3-5.9-16.3-5.9l-29.8-1.2c0,0-5.4-0.1-0.1,1.7
		c5.3,1.8,10.2,4,10.2,4l15.8,6c0,0,31.3,6.2,33.6,13s-41.4-0.2-41.4-0.2l-22.8-7.2c0,0-3.7-0.5-0.8,1.6
		c2.9,2.1,17.8,12.1,17.8,12.1s23.7,4.3,27.4,11.6c0,0-4.8,1.4-28.9,0.7l-26.5-12.4c0,0-4.3-3-1.4,1.6c2.9,4.6,10.4,13.2,10.4,13.2
		s24.5,3.7,25,8.7c0,0-5.1,4.7-29.9,1.3L332.2,582.5z"/>
</g>
<g id="rings">
	<path class="st27" d="M562.1,595.4c0,0-1.4-11.6,0-12.4s3.1-1,3.1-1s1.9,11.1,0,12.4S562.1,595.4,562.1,595.4z"/>
	<path class="st27" d="M373.2,586.9c0,0-4,1.7-5.2-2.4c-1.2-4.2,7.3-12.3,7.3-12.3s5-2.5,6.3,2.9C381.5,575.1,373.2,582,373.2,586.9
		z"/>
	<path class="st27" d="M559.1,612.3c0,0,2.1-3.8,5.6-1.2c3.5,2.5,1.7,14.2,1.7,14.2s-2.4,5-6.7,1.5
		C559.7,626.7,562.1,616.2,559.1,612.3z"/>
</g>
</svg>
