<?xml version="1.0" encoding="utf-8"?>
<!-- Generator: Adobe Illustrator 21.1.0, SVG Export Plug-In . SVG Version: 6.00 Build 0)  -->
<svg version="1.1" xmlns="http://www.w3.org/2000/svg" xmlns:xlink="http://www.w3.org/1999/xlink" x="0px" y="0px"
	 viewBox="0 0 597.1 870.1" style="enable-background:new 0 0 597.1 870.1;" xml:space="preserve">
<style type="text/css">
	.st0{display:none;}
	.st1{display:inline;fill:#E9D724;stroke:#DDC72A;stroke-miterlimit:10;}
	.st2{fill:#CCCCCC;}
	.st3{fill:#6EA2D7;stroke:#0072B5;stroke-miterlimit:10;}
	.st4{fill:#0072B5;}
	.st5{fill:#ACC4E5;stroke:#90AFD3;stroke-miterlimit:10;}
	.st6{fill:#93698B;}
	.st7{fill:#82597C;}
	.st8{fill:none;stroke:#82597C;stroke-miterlimit:10;}
	.st9{fill:#6D624B;}
	.st10{fill:none;stroke:#000000;stroke-miterlimit:10;}
	.st11{fill:#5B543E;}
	.st12{fill:#686865;stroke:#595959;stroke-width:2;stroke-miterlimit:10;}
	.st13{fill:#595959;}
	.st14{fill:#A5285B;stroke:#721F48;stroke-miterlimit:10;}
	.st15{fill:none;stroke:#721F48;stroke-miterlimit:10;}
	.st16{fill:#E2D6A8;stroke:#B7AB8A;stroke-miterlimit:10;}
	.st17{fill:#B7AB8A;}
	.st18{fill:#E2D6A8;}
	.st19{fill:#BCA624;stroke:#D6C129;stroke-miterlimit:10;}
	.st20{fill:#EFDC52;stroke:#D6C129;stroke-miterlimit:10;}
	.st21{fill:#D6C129;stroke:#D6C129;stroke-miterlimit:10;}
	.st22{fill:#EDEFB1;}
	.st23{fill:none;stroke:#EA8BB1;stroke-width:2;stroke-miterlimit:10;}
	.st24{fill:#333232;stroke:#000000;stroke-miterlimit:10;}
	.st25{fill:#726E6F;stroke:#636263;stroke-miterlimit:10;}
	.st26{fill:#EADADF;}
	.st27{fill:#5B543E;stroke:#5B543E;stroke-miterlimit:10;}
	.st28{fill:#E9D724;stroke:#D6C129;stroke-miterlimit:10;}
	.st29{fill:none;stroke:#EDEFB1;stroke-miterlimit:10;}
	.st30{fill:none;stroke:#EDEFB1;stroke-width:2;stroke-miterlimit:10;}
	.st31{fill:#893874;stroke:#703463;stroke-miterlimit:10;}
	.st32{fill:#FFFFFF;}
	.st33{fill:#90AFD3;}
	.st34{fill:#FCFCFC;}
	.st35{fill:#E9D724;stroke:#DDC72A;stroke-miterlimit:10;}
	.st36{fill:none;stroke:#EAE496;stroke-width:2;stroke-miterlimit:10;}
	.st37{fill:none;stroke:#EDEFB1;stroke-width:3;stroke-miterlimit:10;}
	.st38{fill:#E2D6A8;stroke:#CEC199;stroke-miterlimit:10;}
</style>
<g id="stars_x2F_moons" class="st0">
	<polygon class="st1" points="-167.8,-2.6 -164.1,4.8 -155.9,6 -161.9,11.9 -160.4,20.1 -167.8,16.2 -175.2,20.1 -173.8,11.9 
		-179.8,6 -171.5,4.8 	"/>
	<polygon class="st1" points="-110.7,-78.1 -107,-70.7 -98.8,-69.5 -104.7,-63.6 -103.3,-55.4 -110.7,-59.3 -118.1,-55.4 
		-116.7,-63.6 -122.6,-69.5 -114.4,-70.7 	"/>
	<path class="st1" d="M-201.7-69c0,0,14.2-7.1,18.9,4.3s-7.6,18-7.6,18S-178-64.3-201.7-69z"/>
	<path class="st1" d="M-90.6-1.3c0,0,14.2-7.1,18.9,4.3c4.7,11.4-7.6,18-7.6,18S-67,3.4-90.6-1.3z"/>
	<polygon class="st1" points="-173.5,129.8 -169.8,137.2 -161.5,138.4 -167.5,144.2 -166.1,152.5 -173.5,148.6 -180.9,152.5 
		-179.4,144.2 -185.4,138.4 -177.2,137.2 	"/>
	<polygon class="st1" points="-116.4,54.3 -112.7,61.7 -104.4,62.9 -110.4,68.7 -109,77 -116.4,73.1 -123.7,77 -122.3,68.7 
		-128.3,62.9 -120.1,61.7 	"/>
	<path class="st1" d="M-207.3,63.4c0,0,14.2-7.1,18.9,4.3c4.7,11.4-7.6,18-7.6,18S-183.7,68.1-207.3,63.4z"/>
	<path class="st1" d="M-96.3,131.1c0,0,14.2-7.1,18.9,4.3s-7.6,18-7.6,18S-72.6,135.8-96.3,131.1z"/>
	<polygon class="st1" points="-5.9,0.2 -2.2,7.7 6.1,8.9 0.1,14.7 1.5,22.9 -5.9,19.1 -13.3,22.9 -11.8,14.7 -17.8,8.9 -9.6,7.7 	
		"/>
	<polygon class="st1" points="51.2,-75.2 54.9,-67.8 63.2,-66.6 57.2,-60.8 58.6,-52.5 51.2,-56.4 43.9,-52.5 45.3,-60.8 
		39.3,-66.6 47.5,-67.8 	"/>
	<path class="st1" d="M-39.7-66.1c0,0,14.2-7.1,18.9,4.3s-7.6,18-7.6,18S-16.1-61.4-39.7-66.1z"/>
	<path class="st1" d="M71.3,1.6c0,0,14.2-7.1,18.9,4.3s-7.6,18-7.6,18S95,6.3,71.3,1.6z"/>
	<polygon class="st1" points="7.6,154.9 11.3,162.3 19.6,163.5 13.6,169.3 15,177.6 7.6,173.7 0.2,177.6 1.7,169.3 -4.3,163.5 
		3.9,162.3 	"/>
	<polygon class="st1" points="64.7,79.4 68.4,86.8 76.7,88 70.7,93.9 72.1,102.1 64.7,98.2 57.3,102.1 58.8,93.9 52.8,88 61,86.8 	
		"/>
	<path class="st1" d="M-26.2,88.5c0,0,14.2-7.1,18.9,4.3s-7.6,18-7.6,18S-2.6,93.2-26.2,88.5z"/>
	<path class="st1" d="M84.8,156.2c0,0,14.2-7.1,18.9,4.3s-7.6,18-7.6,18S108.5,160.9,84.8,156.2z"/>
	<polygon class="st1" points="-177.8,282.8 -174.1,290.2 -165.9,291.4 -171.9,297.2 -170.4,305.5 -177.8,301.6 -185.2,305.5 
		-183.8,297.2 -189.8,291.4 -181.5,290.2 	"/>
	<polygon class="st1" points="-120.7,207.3 -117,214.7 -108.8,215.9 -114.7,221.7 -113.3,230 -120.7,226.1 -128.1,230 -126.7,221.7 
		-132.6,215.9 -124.4,214.7 	"/>
	<path class="st1" d="M-211.7,216.4c0,0,14.2-7.1,18.9,4.3c4.7,11.4-7.6,18-7.6,18S-188,221.1-211.7,216.4z"/>
	<path class="st1" d="M-100.6,284.1c0,0,14.2-7.1,18.9,4.3c4.7,11.4-7.6,18-7.6,18S-77,288.8-100.6,284.1z"/>
	<polygon class="st1" points="-2.4,307.9 1.3,315.3 9.6,316.5 3.6,322.3 5,330.6 -2.4,326.7 -9.8,330.6 -8.3,322.3 -14.3,316.5 
		-6.1,315.3 	"/>
	<polygon class="st1" points="54.7,232.4 58.4,239.8 66.7,241 60.7,246.9 62.1,255.1 54.7,251.2 47.3,255.1 48.8,246.9 42.8,241 
		51,239.8 	"/>
	<path class="st1" d="M-36.2,241.5c0,0,14.2-7.1,18.9,4.3s-7.6,18-7.6,18S-12.6,246.2-36.2,241.5z"/>
	<path class="st1" d="M74.8,309.2c0,0,14.2-7.1,18.9,4.3c4.7,11.4-7.6,18-7.6,18S98.5,313.9,74.8,309.2z"/>
	<polygon class="st1" points="161.7,-7.8 165.4,-0.3 173.7,0.9 167.7,6.7 169.1,14.9 161.7,11.1 154.4,14.9 155.8,6.7 149.8,0.9 
		158.1,-0.3 	"/>
	<polygon class="st1" points="218.8,-83.2 222.5,-75.8 230.8,-74.6 224.8,-68.8 226.2,-60.5 218.8,-64.4 211.5,-60.5 212.9,-68.8 
		206.9,-74.6 215.2,-75.8 	"/>
	<path class="st1" d="M127.9-74.1c0,0,14.2-7.1,18.9,4.3s-7.6,18-7.6,18S151.5-69.4,127.9-74.1z"/>
	<path class="st1" d="M239-6.4c0,0,14.2-7.1,18.9,4.3c4.7,11.4-7.6,18-7.6,18S262.6-1.7,239-6.4z"/>
	<polygon class="st1" points="156.1,124.6 159.8,132.1 168,133.3 162,139.1 163.5,147.3 156.1,143.5 148.7,147.3 150.1,139.1 
		144.1,133.3 152.4,132.1 	"/>
	<polygon class="st1" points="213.2,49.1 216.9,56.6 225.1,57.8 219.1,63.6 220.6,71.8 213.2,68 205.8,71.8 207.2,63.6 201.2,57.8 
		209.5,56.6 	"/>
	<path class="st1" d="M122.2,58.2c0,0,14.2-7.1,18.9,4.3c4.7,11.4-7.6,18-7.6,18S145.9,63,122.2,58.2z"/>
	<path class="st1" d="M233.3,126c0,0,14.2-7.1,18.9,4.3c4.7,11.4-7.6,18-7.6,18S256.9,130.7,233.3,126z"/>
	<polygon class="st1" points="323.7,-4.9 327.4,2.6 335.6,3.8 329.6,9.6 331.1,17.8 323.7,13.9 316.3,17.8 317.7,9.6 311.7,3.8 
		320,2.6 	"/>
	<polygon class="st1" points="380.8,-80.4 384.5,-72.9 392.7,-71.7 386.8,-65.9 388.2,-57.7 380.8,-61.5 373.4,-57.7 374.8,-65.9 
		368.9,-71.7 377.1,-72.9 	"/>
	<path class="st1" d="M289.8-71.3c0,0,14.2-7.1,18.9,4.3c4.7,11.4-7.6,18-7.6,18S313.5-66.5,289.8-71.3z"/>
	<path class="st1" d="M400.9-3.5c0,0,14.2-7.1,18.9,4.3c4.7,11.4-7.6,18-7.6,18S424.5,1.2,400.9-3.5z"/>
	<polygon class="st1" points="337.2,149.7 340.9,157.2 349.1,158.4 343.1,164.2 344.6,172.4 337.2,168.6 329.8,172.4 331.2,164.2 
		325.2,158.4 333.5,157.2 	"/>
	<polygon class="st1" points="394.3,74.2 398,81.7 406.2,82.9 400.2,88.7 401.7,96.9 394.3,93.1 386.9,96.9 388.3,88.7 382.3,82.9 
		390.6,81.7 	"/>
	<path class="st1" d="M303.3,83.3c0,0,14.2-7.1,18.9,4.3s-7.6,18-7.6,18S327,88.1,303.3,83.3z"/>
	<path class="st1" d="M414.4,151.1c0,0,14.2-7.1,18.9,4.3s-7.6,18-7.6,18S438,155.8,414.4,151.1z"/>
	<polygon class="st1" points="151.7,277.6 155.4,285.1 163.7,286.3 157.7,292.1 159.1,300.3 151.7,296.5 144.4,300.3 145.8,292.1 
		139.8,286.3 148.1,285.1 	"/>
	<polygon class="st1" points="208.8,202.1 212.5,209.6 220.8,210.8 214.8,216.6 216.2,224.8 208.8,221 201.5,224.8 202.9,216.6 
		196.9,210.8 205.2,209.6 	"/>
	<path class="st1" d="M117.9,211.2c0,0,14.2-7.1,18.9,4.3c4.7,11.4-7.6,18-7.6,18S141.5,216,117.9,211.2z"/>
	<path class="st1" d="M229,279c0,0,14.2-7.1,18.9,4.3c4.7,11.4-7.6,18-7.6,18S252.6,283.7,229,279z"/>
	<polygon class="st1" points="327.2,302.7 330.9,310.2 339.1,311.4 333.1,317.2 334.6,325.4 327.2,321.6 319.8,325.4 321.2,317.2 
		315.2,311.4 323.5,310.2 	"/>
	<polygon class="st1" points="384.3,227.2 388,234.7 396.2,235.9 390.2,241.7 391.7,249.9 384.3,246.1 376.9,249.9 378.3,241.7 
		372.3,235.9 380.6,234.7 	"/>
	<path class="st1" d="M293.3,236.3c0,0,14.2-7.1,18.9,4.3c4.7,11.4-7.6,18-7.6,18S317,241.1,293.3,236.3z"/>
	<path class="st1" d="M404.4,304.1c0,0,14.2-7.1,18.9,4.3s-7.6,18-7.6,18S428,308.8,404.4,304.1z"/>
	<polygon class="st1" points="499.1,-0.4 502.8,7.1 511.1,8.3 505.1,14.1 506.5,22.3 499.1,18.4 491.7,22.3 493.2,14.1 487.2,8.3 
		495.4,7.1 	"/>
	<polygon class="st1" points="556.2,-75.9 559.9,-68.4 568.2,-67.2 562.2,-61.4 563.6,-53.2 556.2,-57.1 548.8,-53.2 550.3,-61.4 
		544.3,-67.2 552.5,-68.4 	"/>
	<path class="st1" d="M465.3-66.8c0,0,14.2-7.1,18.9,4.3c4.7,11.4-7.6,18-7.6,18S488.9-62.1,465.3-66.8z"/>
	<path class="st1" d="M576.3,0.9c0,0,14.2-7.1,18.9,4.3c4.7,11.4-7.6,18-7.6,18S600,5.6,576.3,0.9z"/>
	<polygon class="st1" points="493.5,132 497.1,139.4 505.4,140.6 499.4,146.5 500.8,154.7 493.5,150.8 486.1,154.7 487.5,146.5 
		481.5,140.6 489.8,139.4 	"/>
	<polygon class="st1" points="550.6,56.5 554.2,63.9 562.5,65.1 556.5,71 557.9,79.2 550.6,75.3 543.2,79.2 544.6,71 538.6,65.1 
		546.9,63.9 	"/>
	<path class="st1" d="M459.6,65.6c0,0,14.2-7.1,18.9,4.3c4.7,11.4-7.6,18-7.6,18S483.2,70.3,459.6,65.6z"/>
	<path class="st1" d="M570.7,133.3c0,0,14.2-7.1,18.9,4.3c4.7,11.4-7.6,18-7.6,18S594.3,138,570.7,133.3z"/>
	<polygon class="st1" points="661.1,2.5 664.7,9.9 673,11.1 667,16.9 668.4,25.2 661.1,21.3 653.7,25.2 655.1,16.9 649.1,11.1 
		657.4,9.9 	"/>
	<polygon class="st1" points="718.2,-73 721.9,-65.6 730.1,-64.4 724.1,-58.5 725.5,-50.3 718.2,-54.2 710.8,-50.3 712.2,-58.5 
		706.2,-64.4 714.5,-65.6 	"/>
	<path class="st1" d="M627.2-63.9c0,0,14.2-7.1,18.9,4.3c4.7,11.4-7.6,18-7.6,18S650.8-59.2,627.2-63.9z"/>
	<path class="st1" d="M738.3,3.8c0,0,14.2-7.1,18.9,4.3c4.7,11.4-7.6,18-7.6,18S761.9,8.5,738.3,3.8z"/>
	<polygon class="st1" points="674.6,157.1 678.2,164.5 686.5,165.7 680.5,171.6 681.9,179.8 674.6,175.9 667.2,179.8 668.6,171.6 
		662.6,165.7 670.9,164.5 	"/>
	<polygon class="st1" points="731.7,81.6 735.3,89.1 743.6,90.3 737.6,96.1 739,104.3 731.7,100.4 724.3,104.3 725.7,96.1 
		719.7,90.3 728,89.1 	"/>
	<path class="st1" d="M640.7,90.7c0,0,14.2-7.1,18.9,4.3c4.7,11.4-7.6,18-7.6,18S664.3,95.4,640.7,90.7z"/>
	<path class="st1" d="M751.8,158.4c0,0,14.2-7.1,18.9,4.3c4.7,11.4-7.6,18-7.6,18S775.4,163.1,751.8,158.4z"/>
	<polygon class="st1" points="489.1,285 492.8,292.4 501.1,293.6 495.1,299.5 496.5,307.7 489.1,303.8 481.7,307.7 483.2,299.5 
		477.2,293.6 485.4,292.4 	"/>
	<polygon class="st1" points="546.2,209.5 549.9,216.9 558.2,218.1 552.2,224 553.6,232.2 546.2,228.3 538.8,232.2 540.3,224 
		534.3,218.1 542.5,216.9 	"/>
	<path class="st1" d="M455.3,218.6c0,0,14.2-7.1,18.9,4.3c4.7,11.4-7.6,18-7.6,18S478.9,223.3,455.3,218.6z"/>
	<path class="st1" d="M566.3,286.3c0,0,14.2-7.1,18.9,4.3c4.7,11.4-7.6,18-7.6,18S590,291,566.3,286.3z"/>
	<polygon class="st1" points="664.6,310.1 668.2,317.5 676.5,318.7 670.5,324.6 671.9,332.8 664.6,328.9 657.2,332.8 658.6,324.6 
		652.6,318.7 660.9,317.5 	"/>
	<polygon class="st1" points="721.7,234.6 725.3,242.1 733.6,243.3 727.6,249.1 729,257.3 721.7,253.4 714.3,257.3 715.7,249.1 
		709.7,243.3 718,242.1 	"/>
	<path class="st1" d="M630.7,243.7c0,0,14.2-7.1,18.9,4.3c4.7,11.4-7.6,18-7.6,18S654.3,248.4,630.7,243.7z"/>
	<path class="st1" d="M741.8,311.4c0,0,14.2-7.1,18.9,4.3c4.7,11.4-7.6,18-7.6,18S765.4,316.1,741.8,311.4z"/>
	<path class="st1" d="M-197.9,434.5c0,0,14.2-7.1,18.9,4.3c4.7,11.4-7.6,18-7.6,18S-174.2,439.2-197.9,434.5z"/>
	<path class="st1" d="M-203.6,566.8c0,0,14.2-7.1,18.9,4.3c4.7,11.4-7.6,18-7.6,18S-179.9,571.6-203.6,566.8z"/>
	<polygon class="st1" points="-113.2,436 -109.5,443.5 -101.2,444.7 -107.2,450.5 -105.8,458.7 -113.2,454.8 -120.5,458.7 
		-119.1,450.5 -125.1,444.7 -116.9,443.5 	"/>
	<polygon class="st1" points="-56.1,360.5 -52.4,368 -44.1,369.2 -50.1,375 -48.7,383.2 -56.1,379.3 -63.4,383.2 -62,375 -68,369.2 
		-59.8,368 	"/>
	<path class="st1" d="M-147,369.6c0,0,14.2-7.1,18.9,4.3c4.7,11.4-7.6,18-7.6,18S-123.4,374.3-147,369.6z"/>
	<path class="st1" d="M-35.9,437.3c0,0,14.2-7.1,18.9,4.3c4.7,11.4-7.6,18-7.6,18S-12.3,442.1-35.9,437.3z"/>
	<polygon class="st1" points="-99.7,590.6 -96,598.1 -87.7,599.3 -93.7,605.1 -92.3,613.3 -99.7,609.4 -107,613.3 -105.6,605.1 
		-111.6,599.3 -103.4,598.1 	"/>
	<polygon class="st1" points="-42.6,515.1 -38.9,522.6 -30.6,523.8 -36.6,529.6 -35.2,537.8 -42.6,533.9 -49.9,537.8 -48.5,529.6 
		-54.5,523.8 -46.3,522.6 	"/>
	<path class="st1" d="M-133.5,524.2c0,0,14.2-7.1,18.9,4.3s-7.6,18-7.6,18S-109.9,529-133.5,524.2z"/>
	<path class="st1" d="M-22.5,591.9c0,0,14.2-7.1,18.9,4.3s-7.6,18-7.6,18S1.2,596.7-22.5,591.9z"/>
	<path class="st1" d="M-207.9,719.8c0,0,14.2-7.1,18.9,4.3c4.7,11.4-7.6,18-7.6,18S-184.2,724.6-207.9,719.8z"/>
	<polygon class="st1" points="-109.7,743.6 -106,751.1 -97.7,752.3 -103.7,758.1 -102.3,766.3 -109.7,762.4 -117,766.3 
		-115.6,758.1 -121.6,752.3 -113.4,751.1 	"/>
	<polygon class="st1" points="-52.6,668.1 -48.9,675.6 -40.6,676.8 -46.6,682.6 -45.2,690.8 -52.6,686.9 -59.9,690.8 -58.5,682.6 
		-64.5,676.8 -56.3,675.6 	"/>
	<path class="st1" d="M-143.5,677.2c0,0,14.2-7.1,18.9,4.3s-7.6,18-7.6,18S-119.9,682-143.5,677.2z"/>
	<path class="st1" d="M-32.5,744.9c0,0,14.2-7.1,18.9,4.3s-7.6,18-7.6,18S-8.8,749.7-32.5,744.9z"/>
	<polygon class="st1" points="54.4,428 58.1,435.5 66.4,436.7 60.4,442.5 61.8,450.7 54.4,446.8 47.1,450.7 48.5,442.5 42.5,436.7 
		50.8,435.5 	"/>
	<polygon class="st1" points="111.6,352.5 115.2,360 123.5,361.2 117.5,367 118.9,375.2 111.6,371.3 104.2,375.2 105.6,367 
		99.6,361.2 107.9,360 	"/>
	<path class="st1" d="M20.6,361.6c0,0,14.2-7.1,18.9,4.3c4.7,11.4-7.6,18-7.6,18S44.2,366.3,20.6,361.6z"/>
	<path class="st1" d="M131.7,429.3c0,0,14.2-7.1,18.9,4.3c4.7,11.4-7.6,18-7.6,18S155.3,434.1,131.7,429.3z"/>
	<polygon class="st1" points="48.8,560.4 52.5,567.9 60.7,569.1 54.8,574.9 56.2,583.1 48.8,579.2 41.4,583.1 42.8,574.9 
		36.9,569.1 45.1,567.9 	"/>
	<polygon class="st1" points="105.9,484.9 109.6,492.4 117.8,493.6 111.9,499.4 113.3,507.6 105.9,503.7 98.5,507.6 99.9,499.4 
		94,493.6 102.2,492.4 	"/>
	<path class="st1" d="M14.9,494c0,0,14.2-7.1,18.9,4.3c4.7,11.4-7.6,18-7.6,18S38.6,498.7,14.9,494z"/>
	<path class="st1" d="M126,561.7c0,0,14.2-7.1,18.9,4.3c4.7,11.4-7.6,18-7.6,18S149.7,566.4,126,561.7z"/>
	<polygon class="st1" points="216.4,430.9 220.1,438.4 228.3,439.5 222.4,445.4 223.8,453.6 216.4,449.7 209,453.6 210.4,445.4 
		204.5,439.5 212.7,438.4 	"/>
	<polygon class="st1" points="273.5,355.4 277.2,362.9 285.4,364.1 279.5,369.9 280.9,378.1 273.5,374.2 266.1,378.1 267.5,369.9 
		261.6,364.1 269.8,362.9 	"/>
	<path class="st1" d="M182.5,364.5c0,0,14.2-7.1,18.9,4.3c4.7,11.4-7.6,18-7.6,18S206.2,369.2,182.5,364.5z"/>
	<path class="st1" d="M293.6,432.2c0,0,14.2-7.1,18.9,4.3c4.7,11.4-7.6,18-7.6,18S317.3,436.9,293.6,432.2z"/>
	<polygon class="st1" points="229.9,585.5 233.6,593 241.8,594.2 235.9,600 237.3,608.2 229.9,604.3 222.5,608.2 223.9,600 
		218,594.2 226.2,593 	"/>
	<polygon class="st1" points="287,510 290.7,517.5 298.9,518.7 293,524.5 294.4,532.7 287,528.8 279.6,532.7 281,524.5 275.1,518.7 
		283.3,517.5 	"/>
	<path class="st1" d="M196,519.1c0,0,14.2-7.1,18.9,4.3c4.7,11.4-7.6,18-7.6,18S219.7,523.8,196,519.1z"/>
	<path class="st1" d="M307.1,586.8c0,0,14.2-7.1,18.9,4.3c4.7,11.4-7.6,18-7.6,18S330.7,591.6,307.1,586.8z"/>
	<polygon class="st1" points="44.4,713.4 48.1,720.9 56.4,722.1 50.4,727.9 51.8,736.1 44.4,732.2 37.1,736.1 38.5,727.9 
		32.5,722.1 40.8,720.9 	"/>
	<polygon class="st1" points="101.6,637.9 105.2,645.4 113.5,646.6 107.5,652.4 108.9,660.6 101.6,656.7 94.2,660.6 95.6,652.4 
		89.6,646.6 97.9,645.4 	"/>
	<path class="st1" d="M10.6,647c0,0,14.2-7.1,18.9,4.3s-7.6,18-7.6,18S34.2,651.7,10.6,647z"/>
	<path class="st1" d="M121.7,714.7c0,0,14.2-7.1,18.9,4.3c4.7,11.4-7.6,18-7.6,18S145.3,719.4,121.7,714.7z"/>
	<polygon class="st1" points="219.9,738.5 223.6,746 231.8,747.2 225.9,753 227.3,761.2 219.9,757.3 212.5,761.2 213.9,753 
		208,747.2 216.2,746 	"/>
	<polygon class="st1" points="277,663 280.7,670.5 288.9,671.7 283,677.5 284.4,685.7 277,681.8 269.6,685.7 271,677.5 265.1,671.7 
		273.3,670.5 	"/>
	<path class="st1" d="M186,672.1c0,0,14.2-7.1,18.9,4.3c4.7,11.4-7.6,18-7.6,18S209.7,676.8,186,672.1z"/>
	<path class="st1" d="M297.1,739.8c0,0,14.2-7.1,18.9,4.3c4.7,11.4-7.6,18-7.6,18S320.7,744.6,297.1,739.8z"/>
	<polygon class="st1" points="391.8,435.3 395.5,442.8 403.8,444 397.8,449.8 399.2,458 391.8,454.2 384.5,458 385.9,449.8 
		379.9,444 388.1,442.8 	"/>
	<polygon class="st1" points="448.9,359.8 452.6,367.3 460.9,368.5 454.9,374.3 456.3,382.5 448.9,378.7 441.6,382.5 443,374.3 
		437,368.5 445.2,367.3 	"/>
	<path class="st1" d="M358,368.9c0,0,14.2-7.1,18.9,4.3c4.7,11.4-7.6,18-7.6,18S381.6,373.7,358,368.9z"/>
	<path class="st1" d="M469,436.7c0,0,14.2-7.1,18.9,4.3c4.7,11.4-7.6,18-7.6,18S492.7,441.4,469,436.7z"/>
	<polygon class="st1" points="386.2,567.7 389.9,575.2 398.1,576.4 392.1,582.2 393.5,590.4 386.2,586.5 378.8,590.4 380.2,582.2 
		374.2,576.4 382.5,575.2 	"/>
	<polygon class="st1" points="443.3,492.2 447,499.7 455.2,500.9 449.2,506.7 450.6,514.9 443.3,511 435.9,514.9 437.3,506.7 
		431.3,500.9 439.6,499.7 	"/>
	<path class="st1" d="M352.3,501.3c0,0,14.2-7.1,18.9,4.3c4.7,11.4-7.6,18-7.6,18S375.9,506.1,352.3,501.3z"/>
	<path class="st1" d="M463.4,569.1c0,0,14.2-7.1,18.9,4.3c4.7,11.4-7.6,18-7.6,18S487,573.8,463.4,569.1z"/>
	<polygon class="st1" points="553.8,438.2 557.5,445.7 565.7,446.9 559.7,452.7 561.1,460.9 553.8,457 546.4,460.9 547.8,452.7 
		541.8,446.9 550.1,445.7 	"/>
	<polygon class="st1" points="610.9,362.7 614.6,370.2 622.8,371.4 616.8,377.2 618.2,385.4 610.9,381.5 603.5,385.4 604.9,377.2 
		598.9,371.4 607.2,370.2 	"/>
	<path class="st1" d="M519.9,371.8c0,0,14.2-7.1,18.9,4.3c4.7,11.4-7.6,18-7.6,18S543.5,376.6,519.9,371.8z"/>
	<path class="st1" d="M631,439.5c0,0,14.2-7.1,18.9,4.3s-7.6,18-7.6,18S654.6,444.3,631,439.5z"/>
	<polygon class="st1" points="567.3,592.8 571,600.3 579.2,601.5 573.2,607.3 574.6,615.5 567.3,611.7 559.9,615.5 561.3,607.3 
		555.3,601.5 563.6,600.3 	"/>
	<polygon class="st1" points="624.4,517.3 628.1,524.8 636.3,526 630.3,531.8 631.7,540 624.4,536.2 617,540 618.4,531.8 612.4,526 
		620.7,524.8 	"/>
	<path class="st1" d="M533.4,526.4c0,0,14.2-7.1,18.9,4.3c4.7,11.4-7.6,18-7.6,18S557,531.2,533.4,526.4z"/>
	<path class="st1" d="M644.5,594.2c0,0,14.2-7.1,18.9,4.3s-7.6,18-7.6,18S668.1,598.9,644.5,594.2z"/>
	<polygon class="st1" points="381.8,720.7 385.5,728.2 393.8,729.4 387.8,735.2 389.2,743.4 381.8,739.5 374.5,743.4 375.9,735.2 
		369.9,729.4 378.1,728.2 	"/>
	<polygon class="st1" points="438.9,645.2 442.6,652.7 450.9,653.9 444.9,659.7 446.3,667.9 438.9,664 431.6,667.9 433,659.7 
		427,653.9 435.2,652.7 	"/>
	<path class="st1" d="M348,654.3c0,0,14.2-7.1,18.9,4.3c4.7,11.4-7.6,18-7.6,18S371.6,659.1,348,654.3z"/>
	<path class="st1" d="M459,722.1c0,0,14.2-7.1,18.9,4.3c4.7,11.4-7.6,18-7.6,18S482.7,726.8,459,722.1z"/>
	<polygon class="st1" points="557.3,745.8 561,753.3 569.2,754.5 563.2,760.3 564.6,768.5 557.3,764.7 549.9,768.5 551.3,760.3 
		545.3,754.5 553.6,753.3 	"/>
	<polygon class="st1" points="614.4,670.3 618.1,677.8 626.3,679 620.3,684.8 621.7,693 614.4,689.2 607,693 608.4,684.8 602.4,679 
		610.7,677.8 	"/>
	<path class="st1" d="M523.4,679.4c0,0,14.2-7.1,18.9,4.3c4.7,11.4-7.6,18-7.6,18S547,684.2,523.4,679.4z"/>
	<path class="st1" d="M634.5,747.2c0,0,14.2-7.1,18.9,4.3s-7.6,18-7.6,18S658.1,751.9,634.5,747.2z"/>
	<polygon class="st1" points="724.1,448.4 727.8,455.8 736,457 730,462.8 731.4,471.1 724.1,467.2 716.7,471.1 718.1,462.8 
		712.1,457 720.4,455.8 	"/>
	<path class="st1" d="M690.2,382c0,0,14.2-7.1,18.9,4.3c4.7,11.4-7.6,18-7.6,18S713.9,386.7,690.2,382z"/>
	<polygon class="st1" points="718.4,580.7 722.1,588.2 730.3,589.4 724.4,595.2 725.8,603.4 718.4,599.6 711,603.4 712.4,595.2 
		706.5,589.4 714.7,588.2 	"/>
	<path class="st1" d="M684.5,514.3c0,0,14.2-7.1,18.9,4.3c4.7,11.4-7.6,18-7.6,18S708.2,519.1,684.5,514.3z"/>
	<polygon class="st1" points="714.1,733.7 717.8,741.2 726,742.4 720,748.2 721.4,756.4 714.1,752.6 706.7,756.4 708.1,748.2 
		702.1,742.4 710.4,741.2 	"/>
	<polygon class="st1" points="771.2,658.2 774.9,665.7 783.1,666.9 777.1,672.7 778.6,680.9 771.2,677.1 763.8,680.9 765.2,672.7 
		759.2,666.9 767.5,665.7 	"/>
	<path class="st1" d="M680.2,667.3c0,0,14.2-7.1,18.9,4.3c4.7,11.4-7.6,18-7.6,18S703.9,672.1,680.2,667.3z"/>
	<path class="st1" d="M-189.7,867.7c0,0,14.2-7.1,18.9,4.3c4.7,11.4-7.6,18-7.6,18S-166.1,872.4-189.7,867.7z"/>
	<polygon class="st1" points="-85.8,891.4 -82.2,898.9 -73.9,900.1 -79.9,905.9 -78.5,914.1 -85.8,910.3 -93.2,914.1 -91.8,905.9 
		-97.8,900.1 -89.5,898.9 	"/>
	<polygon class="st1" points="-28.7,816 -25.1,823.4 -16.8,824.6 -22.8,830.4 -21.4,838.7 -28.7,834.8 -36.1,838.7 -34.7,830.4 
		-40.7,824.6 -32.4,823.4 	"/>
	<path class="st1" d="M-119.7,825.1c0,0,14.2-7.1,18.9,4.3s-7.6,18-7.6,18S-96.1,829.8-119.7,825.1z"/>
	<path class="st1" d="M-8.6,892.8c0,0,14.2-7.1,18.9,4.3s-7.6,18-7.6,18S15,897.5-8.6,892.8z"/>
	<path class="st1" d="M-151,955.2c0,0,14.2-7.1,18.9,4.3c4.7,11.4-7.6,18-7.6,18S-127.4,959.9-151,955.2z"/>
	<polygon class="st1" points="62.6,861.2 66.3,868.7 74.5,869.9 68.6,875.7 70,883.9 62.6,880 55.2,883.9 56.6,875.7 50.7,869.9 
		58.9,868.7 	"/>
	<polygon class="st1" points="119.7,785.7 123.4,793.2 131.7,794.4 125.7,800.2 127.1,808.4 119.7,804.5 112.3,808.4 113.8,800.2 
		107.8,794.4 116,793.2 	"/>
	<path class="st1" d="M28.7,794.8c0,0,14.2-7.1,18.9,4.3s-7.6,18-7.6,18S52.4,799.6,28.7,794.8z"/>
	<path class="st1" d="M139.8,862.5c0,0,14.2-7.1,18.9,4.3c4.7,11.4-7.6,18-7.6,18S163.5,867.3,139.8,862.5z"/>
	<polygon class="st1" points="243.7,886.3 247.4,893.8 255.6,895 249.7,900.8 251.1,909 243.7,905.1 236.3,909 237.7,900.8 
		231.8,895 240,893.8 	"/>
	<polygon class="st1" points="300.8,810.8 304.5,818.3 312.7,819.5 306.8,825.3 308.2,833.5 300.8,829.7 293.4,833.5 294.8,825.3 
		288.9,819.5 297.1,818.3 	"/>
	<path class="st1" d="M209.8,819.9c0,0,14.2-7.1,18.9,4.3c4.7,11.4-7.6,18-7.6,18S233.5,824.7,209.8,819.9z"/>
	<path class="st1" d="M320.9,887.7c0,0,14.2-7.1,18.9,4.3c4.7,11.4-7.6,18-7.6,18S344.6,892.4,320.9,887.7z"/>
	<polygon class="st1" points="115.4,938.7 119.1,946.2 127.3,947.4 121.3,953.2 122.8,961.4 115.4,957.5 108,961.4 109.4,953.2 
		103.4,947.4 111.7,946.2 	"/>
	<path class="st1" d="M24.4,947.8c0,0,14.2-7.1,18.9,4.3s-7.6,18-7.6,18S48.1,952.6,24.4,947.8z"/>
	<polygon class="st1" points="400,868.6 403.7,876 411.9,877.2 406,883 407.4,891.3 400,887.4 392.6,891.3 394,883 388.1,877.2 
		396.3,876 	"/>
	<polygon class="st1" points="457.1,793.1 460.8,800.5 469,801.7 463.1,807.5 464.5,815.8 457.1,811.9 449.7,815.8 451.1,807.5 
		445.2,801.7 453.4,800.5 	"/>
	<path class="st1" d="M366.1,802.2c0,0,14.2-7.1,18.9,4.3s-7.6,18-7.6,18S389.8,806.9,366.1,802.2z"/>
	<path class="st1" d="M477.2,869.9c0,0,14.2-7.1,18.9,4.3c4.7,11.4-7.6,18-7.6,18S500.9,874.6,477.2,869.9z"/>
	<polygon class="st1" points="581.1,893.7 584.8,901.1 593,902.3 587.1,908.1 588.5,916.4 581.1,912.5 573.7,916.4 575.1,908.1 
		569.2,902.3 577.4,901.1 	"/>
	<polygon class="st1" points="638.2,818.2 641.9,825.6 650.1,826.8 644.2,832.7 645.6,840.9 638.2,837 630.8,840.9 632.2,832.7 
		626.3,826.8 634.5,825.6 	"/>
	<path class="st1" d="M547.2,827.3c0,0,14.2-7.1,18.9,4.3s-7.6,18-7.6,18S570.9,832,547.2,827.3z"/>
	<path class="st1" d="M658.3,895c0,0,14.2-7.1,18.9,4.3c4.7,11.4-7.6,18-7.6,18S682,899.7,658.3,895z"/>
	<polygon class="st1" points="452.8,946.1 456.4,953.5 464.7,954.7 458.7,960.5 460.1,968.8 452.8,964.9 445.4,968.8 446.8,960.5 
		440.8,954.7 449.1,953.5 	"/>
	<path class="st1" d="M361.8,955.2c0,0,14.2-7.1,18.9,4.3s-7.6,18-7.6,18S385.4,959.9,361.8,955.2z"/>
	<polygon class="st1" points="602.4,945.9 606.1,953.3 614.4,954.5 608.4,960.4 609.8,968.6 602.4,964.7 595.1,968.6 596.5,960.4 
		590.5,954.5 598.7,953.3 	"/>
	<polygon class="st1" points="732.2,881.6 735.9,889 744.2,890.2 738.2,896.1 739.6,904.3 732.2,900.4 724.9,904.3 726.3,896.1 
		720.3,890.2 728.6,889 	"/>
	<path class="st1" d="M698.4,815.2c0,0,14.2-7.1,18.9,4.3c4.7,11.4-7.6,18-7.6,18S722,819.9,698.4,815.2z"/>
</g>
<g id="shadow">
	<path class="st2" d="M43.2,766.2c0,0,42-96.4,56.7-97.4c0,0-10.3-83.9-22.8-96.4c0,0-9.3,7-16.6,3.3c0,0-64.6,38.8-43.3-43.8
		c0,0,3.3-34.6,54-66.6s40.2-28,40.2-28s3.5-4.7,0-18c-3.5-13.3,15.4-16.6,15.4-16.6s39.2-17.7,22.2-29.9c0,0-38.7-23.5-29.4-36.8
		s18.5-31.5,18.5-31.5s-9.2-17.5,0.8-29.2l-21.5-23c0,0-18-17-2-25.5s1.2-25.2,1.2-25.2s-7.1-24,1.8-42.2c0,0-12.2-23-0.5-37
		c0,0,46-71.5,78.5-89.2l3.8-13.5c0,0,5.3,4.8,5.4,9.8c0,0,28.1-8.8,49.1-7l10.2-4.8V22c0,0,22.8-1,36.8,8.5l54.2,24
		c0,0,17.2,3.9,25.2,21.4s16.5,17.3,16.5,17.3s12.8,2,19,27c0,0,25.2,29,7.2,44.8c0,0,29,22.8,13.2,44.5l-4.8,47
		c0,0,38.2,11,35.5,30.2s-8.5,37.8-8.5,37.8s-2,19.2,10.5,22.5s23.2,19.8,23.2,19.8s5.5,10.8-7.5,24c0,0-5.8,16.5-4.2,25.5
		l18.5,24.3c0,0,24.5,48.7,24.5,55.9s21.2,40.1,21.2,40.1s26.2,45.9,27.2,54.9c0,0,17.8,34.8-8.8,44.2c0,0-11.5,3-18.8,2.5
		c0,0-22.8,71.5-27.8,75.5c0,0,15.8,23,13.2,33c0,0-16.3,5-18.2,27.5c-1.8,22.5-8.5,31.8-8.5,31.8s-12.6,17.5-28.8,12s-57-15-57-15
		s-30.8-4.8-58,25.8s-59,28.8-59,28.8s-18.2-2.2-47.2-20.8s-46.8-8.8-46.8-8.8s-45,27-65.5,6.8s-31.1-35.5-31.1-35.5
		s-18.4-13.2-27.1-11S48.7,780.6,43.2,766.2z"/>
</g>
<g id="table">
	<path class="st3" d="M60.5,752.7c0,0,42.6-91.4,54.4-93.5s107.5-18.6,115.4-9.8s123.3-3.9,123.3-3.9s97.3,2.8,104,12
		c0,0,19.7,16,42.7,44.3c0,0,11.7,18.8,12.3,33.8c0,0-16.1,4-16.7,27.5s-10.1,33.5-10.1,33.5s-13.5,17-38,5s-52.5-12-52.5-12
		s-37,19.5-52.5,34.5s-39,20-39,20s-17.2,1-57.8-27c0,0-16.2-9-35.7-0.5s-35,13-35,13s-13.5,3.5-24-10s-28.5-33.5-28.5-33.5
		s-16-13.5-26-10S60.5,752.7,60.5,752.7z"/>
	<path class="st4" d="M110.6,778.4c0,0,28.1-62.7,26.6-66.2s1.5,3.5,1.5,3.5s-9.5,69.5-16,70.5L110.6,778.4z"/>
	<path class="st4" d="M211.7,816.1c0,0,13-66.7,21.9-67.4c0,0,7.3-11.9,14.8,70.2C248.4,818.9,232.7,807.7,211.7,816.1z"/>
	<path class="st4" d="M381.3,797.5c0,0-2.1-64.3,3.8-62.6c5.8,1.7,22.3,55.7,22.3,55.7l-12.2-0.9L381.3,797.5z"/>
	<path class="st4" d="M498.5,749.5c0,0-25-24.5-28-48.5c0,0,26.5,37,33.5,40C504,741.1,499.9,745.5,498.5,749.5z"/>
	<path class="st4" d="M343.5,701.1c0,0,81.1-8.5,107.6-37.8C451.1,663.2,426.9,702.6,343.5,701.1z"/>
	<path class="st4" d="M120.9,671.8c0,0,25.5,40.1,174.3,31.8C295.1,703.6,158.5,708.7,120.9,671.8z"/>
</g>
<g id="ball_outline">
	<ellipse class="st5" cx="288.5" cy="572.8" rx="96.6" ry="96"/>
</g>
<g id="jacket">
	<path class="st6" d="M268.7,372.7l-11.5-1.5c0,0-45,24-57.5,10.5l-15.5,3.5l-62.3,54.5c0,0-46.1,22.2-56.4,39.2c0,0-27,23-24.7,39
		c0,0-14.7,35-3.3,53.7c0,0,10.7,14.3,33.7-1.7l19.7-12c0,0,24.3,56,24,101.3c0,0,87-16,110.3-12c0,0-51.3-39.3-26.3-104.7
		c0,0,23.2-51,47.3-56.3c0,0,73.9-26.9,116.7,25.7c0.6,0.8,1.2,1.5,1.8,2.3c42.5,55.7,0,119,0,119l-11.2,12.3c0,0,87.3,0.7,104,12
		s42.7,44.3,42.7,44.3l25.7-72c0,0,42.3,0,28.3-37.7c-14-37.7-14-37.7-14-37.7l-19.3-31.3l-31.3-73.3c0,0-10.3-25.7-23.8-36.2
		c0,0-8.5-33.8-38.5-12c0,0-13.3-10.8-43-15.5c-29.7-4.7-42.7-5.3-42.7-5.3L268.7,372.7z"/>
	<path class="st7" d="M438.9,440.6c0,0,25.7,45.7,27,66.7L438.9,440.6z"/>
	<path class="st8" d="M488.2,538.9h14.7c0,0,19.7,24.7,21.7,40.3c0,0,0-18-15.3-35.7c0,0,20.3,1.3,24.7,10.7"/>
	<path class="st7" d="M433.9,585.2c0,0,33.7,40.3,78.7,43.3"/>
	<path class="st7" d="M423.4,649.4c0,0,23.9-25.2,26.1-36.2l5-3.3c0,0-3.7,23.8-22.3,39.6H423.4z"/>
	<path class="st7" d="M169.8,458.9c0,0,17.4-34,21.9-34.6l0.5,7.5L169.8,458.9z"/>
	<path class="st8" d="M131.9,518.2c0,0-22.7,32-41,39.7"/>
	<path class="st8" d="M40.9,517.9c0,0,5.3-28.7,28.3-34.7s35.1-10,52.7-7.7"/>
	<path class="st7" d="M181.3,649.1c0,0-44.1-26.9-64.7-91.2c0,0,16.3,71.7,53.3,92.7L181.3,649.1z"/>
	<path class="st9" d="M339.7,371.7c0,0,14.8-10.2,17.5,2s0,0,0,0l-2.7,8.8l-13-1.7C341.5,380.9,342.3,370.5,339.7,371.7"/>
</g>
<g id="hair">
	<path class="st10" d="M374.2,318.2"/>
	<path class="st9" d="M136.5,212.2c0,0-2.8,16.5-12.8,23.5s25.5,36.5,25.5,36.5s2,6-2.5,9s2.9,22.5,2.9,22.5s-23.4,33.5-17.9,39.5
		s-8.5-3.5,29.5,31c0,0,9,11.5-17.5,21s-19,24-19,24s9.4,10.5-2.8,20.5c0,0,62.3-46,62.3-54.5c0,0,19,9,12,24s-4,22.5-4,22.5l9,8
		c0,0-7.5-16.5,3-22c0,0,12.5-19.5-4.5-36c0,0,10,14,57.5-10.5l11.5,1.5l71-1c0,0,13.5-8,17.5,2c0,0-12,13.5,14.5,36.5
		c0,0,4,1-10,18.5s30,32,30,32s-18.5-21.5,0-26.5c0,0,9-12-8-23c0,0-7-23,0.5-25c0,0,38.5,9.5,43,15.5c0,0,26.5-23,38.5,12
		c0,0,3-34,12-34c0,0,8.5-25-30.5-39.5c0,0-3-24.5,4-42c0,0,15-29-29.5-38.5c0,0,0.5-52.5,8-69s-55.5-35.2-55.5-35.2L238,109.1
		c0,0-34.4-36.1-71.8,11.1S136.5,212.2,136.5,212.2z"/>
	<path class="st11" d="M136.5,212.2l1.7,14.8c0,0-17,14.2,3,27c0,0,10,6.5,12.5,10.5c0,0-0.5-28-13.2-38.5l-1.2-16.2L136.5,212.2z"
		/>
	<path class="st11" d="M159.2,311.7c0,0-8.2,14.8-11.2,15s-4.8,8-4.8,8s-2.5,3,25.2,38.8c0,0,2.5,20.5-14.2,29.2
		s-20.8,11.5-20.8,11.5s2.6,14.9,0,16.8c-2.6,1.9,52.2-40.1,50.8-45.8c0,0-11.8-16-9.2-26.8c0,0,0.2-35-5.5-37.8
		S159.2,311.7,159.2,311.7z"/>
	<path class="st11" d="M179.2,255c0,0,2.8,7-4.5,12.2s-4,16.5-4,16.5L187,313c0,0,8.8,12.5,2.2,32.8s10.5,36,10.5,36
		s11.8,13.8,57.5-10.5l11.5,1.5l8.7-0.1l-1.7-35.6c0,0-66.2,2.8-68.5-20L179.2,255z"/>
	<path class="st11" d="M384.2,386.2c0,0,20.7-20,3-47.7c0,0-5.4-23.2,7.1-26.6c0,0,30.2-29.1,17.2-44.1l-12-26.7l18,27.3
		c0,0,23.7,7.7,18.3,33c-5.3,25.3,0.8,41.3,0.8,41.3s11.6,18,23.6,22.7s0,37,0,37s-10.7-18-33-0.9
		C427.2,401.7,413.9,390.9,384.2,386.2z"/>
	<path class="st11" d="M384.2,192l2.8-14.8c0,0,3.2,11.5,1.2,14.8H384.2z"/>
	<polyline class="st9" points="355.5,303.9 327,328.2 326.7,332.5 353,312 355.5,303.9 	"/>
</g>
<g id="turban">
	<path class="st12" d="M206.5,109.1c0,0-20.6,60.1-70,103.1c0,0-16.3-31.5-5-51.6c0,0-16-25.7,12-54.3l44.7-55.4
		c0,0,38.7-37.8,104-16.2S367.9,72,367.9,72s12.3,25.4,28.7,30.8c0,0,9.7,10.8,11,22.4c0,0,18,24.3,9,42.3c0,0-45.3-4-77-16.3
		c0,0-85-14.2-111.8-43.3l-15.3-9.5L206.5,109.1z"/>
	<path class="st13" d="M239,89.7c0,0,6,3.2,18,1.7L239,89.7z"/>
	<path class="st13" d="M236.8,100c0,0,4.5,6.1,11.2,5.2C248,105.2,239.3,109.2,236.8,100z"/>
	<path class="st13" d="M192,95.5c0,0,11.9-2.4,12.7-4.1C204.7,91.4,198,98.8,192,95.5z"/>
	<path class="st13" d="M136.5,155.5c0,0,47.9-29.3,64.8-54.3C201.2,101.2,165,157.7,136.5,155.5z"/>
	<path class="st13" d="M252.5,82.5c0,0,112.4,27.1,121.4,11.1C373.9,93.6,289.5,93.1,252.5,82.5z"/>
	<path class="st13" d="M275.2,100c0,0,98,35.6,128.3,30.3C403.5,130.2,351.8,147.7,275.2,100z"/>
</g>
<g id="feathers">
	<path class="st14" d="M222.7,77.9c0,0,3.2-38.7,14.8-44.2l0.8,7.2c0,0,11-15.5,28.7-16.5c0,0,1.1,8.8-11.4,21c0,0,6.1-3,8.6-3.5
		c0,0,3.2,6-12.6,16.8c0,0,13.2-4.1,3.6,4.9c0,0-7.2,13.5-22,17.6S222.7,77.9,222.7,77.9z"/>
	<path class="st10" d="M208.2,45.2"/>
	<path class="st15" d="M227.7,75.9c0,0,1.3-2.4,3.4-6.1c6.2-10.9,19.3-33.1,24.7-34.9"/>
	<path class="st15" d="M233.5,51.1c0,0-4.1,11.2-2.5,18.8c0,0,5.3-0.8,12-9.4"/>
	<path class="st15" d="M241.5,52.4c0,0-0.9-8.9,4.3-13.6"/>
	<path class="st15" d="M239,56.4c0,0,9.2-6,10.3-8.3"/>
	<path class="st14" d="M214.3,79.6c0,0-17.1-16.9-15.7-27.4c0,0,3.5,1,4.8,3.2c0,0-2.8-20.4,4.5-29c0,0,6.1,6.1,6.4,17.5
		c0,0,0.4-7.1,2.8-7c2.3,0.1,3.8,16.1,3.8,16.1s2.6-10.7,4.5,0c1.9,10.7,0.6,23.6,0.6,23.6S224.8,87.6,214.3,79.6z"/>
	<path class="st15" d="M207.6,39.2c0,0,3.4,31.7,11.9,38.6"/>
	<path class="st15" d="M205.4,47.6c0,0,1.3,9.2,5.6,10.9"/>
	<path class="st15" d="M205.4,57.2c0,0,2,11.5,10,14.8"/>
	<path class="st15" d="M212.4,49.3c0,0,1.6,10.2-0.4,13.2"/>
	<path class="st15" d="M217.5,57.8c0,0,3.4,16.9,0.6,18.4"/>
</g>
<g id="ear">
	<path class="st16" d="M399.5,241.2c0,0,18.7-36.5-15.3-49.2c0,0-0.7,5.9-0.3,13.8c0.5,8.5,2.4,19.4,8.1,27.8
		C394.1,236.5,396.5,239.1,399.5,241.2z"/>
	<path class="st17" d="M393,231.2c0,0-2.8-23.8-8.8-22.2C384.2,209,394.7,203,393,231.2z"/>
</g>
<g id="head">
	<path class="st18" d="M171.2,212.2c0,0,6-17,15.7-23.3c0,0,22-41.7,23.5-62.7c0,0,27.4,39.3,56.6,36.7l-8.4-7.4
		c0,0,14,8.4,59.3,9.7c0,0,14.3,2,17,17.3c2.7,15.3,13.7,34,13.7,34l28.7,32.6c0,0,13,12.9,0,29.1c-13,16.2-21.7,25.6-21.7,25.6
		L353,312l-26.2,20.5v10.4c0,0,17.2,23.4,14.8,38c0,0-14.3,23.7-41.3,24.7s-31.5-32.8-31.5-32.8l8.7-0.1l-1.7-35.6
		c0,0-64.8,1.4-68.5-20l-28-62C179.2,255,165.5,224.1,171.2,212.2z"/>
	<polygon class="st9" points="355.5,303.9 327,328.2 326.7,332.5 353,312 	"/>
</g>
<g id="button">
	<path class="st19" d="M203.3,109c0,0-5.1-41.7,31.1-26.5c0,0,11.5,17.3-6.8,25.5S203.3,109,203.3,109z"/>
	<polygon class="st10" points="207.6,93.6 210.4,98.5 218.3,99 224.1,94.7 224.1,86.5 215.9,83.9 210.4,86.7 	"/>
	<path class="st20" d="M207.6,110.9l2.8-12.4l7.9,0.5l1.2,11.9C219.5,110.9,210.5,113.1,207.6,110.9z"/>
	<polygon class="st20" points="224.1,94.7 218.3,99 219.5,110.9 230.7,106.4 	"/>
	<path class="st20" d="M224.1,94.7v-8.2l10.4-4c0,0,10.3,14-3.8,23.9L224.1,94.7z"/>
	<path class="st20" d="M215.9,83.9l-0.4-4c0,0,7.5-2.8,19,2.7l-10.4,4L215.9,83.9z"/>
	<path class="st20" d="M210.4,86.7l-2.8-1.2c0,0,3.8-5.6,7.8-5.7l0.4,4L210.4,86.7z"/>
	<path class="st21" d="M207.6,93.6l-4.2,4.2c0,0-3.5,13.1,4.2,13l2.8-12.4L207.6,93.6z"/>
	<polygon class="st20" points="207.6,93.6 210.4,98.5 218.3,99 224.1,94.7 224.1,86.5 215.9,83.9 210.4,86.7 	"/>
	<path class="st22" d="M234.5,86.7L233.7,99C233.7,99,237.3,95.1,234.5,86.7z"/>
	<polygon class="st22" points="207.6,93.6 218.3,84.6 220.1,85.2 209.1,94.7 	"/>
	<polygon class="st22" points="210.4,98.5 222.1,85.9 224.1,86.5 212.4,98.5 	"/>
</g>
<g id="nose_x2C__mouth_x2C__cheeks_x2C__chin">
	<line class="st23" x1="217.5" y1="297.9" x2="226.9" y2="302.6"/>
	<line class="st23" x1="223.7" y1="292.9" x2="234.4" y2="297.9"/>
	<line class="st23" x1="320.8" y1="266.9" x2="330.1" y2="271.6"/>
	<line class="st23" x1="327" y1="261.9" x2="337.6" y2="266.9"/>
	<path class="st10" d="M265.4,289.7c0,0,1.2-3.8,6.8-3.1C272.2,286.6,264.4,283.5,265.4,289.7z"/>
	<path class="st24" d="M282,308c0,0,32.4-11.1,34.4-19.6C316.4,288.4,320.2,311.4,282,308z"/>
	<path class="st10" d="M299.9,318.7c0,0,4.7,1.4,7.1-0.9"/>
</g>
<g id="eyes">
	
		<ellipse transform="matrix(0.9479 -0.3187 0.3187 0.9479 -73.5066 83.1227)" class="st25" cx="217.3" cy="266.2" rx="12.3" ry="20.4"/>
	
		<ellipse transform="matrix(0.9479 -0.3187 0.3187 0.9479 -57.3383 111.9953)" class="st25" cx="313.6" cy="231.2" rx="12.3" ry="20.4"/>
	<circle class="st26" cx="216" cy="259.1" r="3.9"/>
	<circle class="st26" cx="221.1" cy="254.1" r="1.9"/>
	<circle class="st26" cx="311.2" cy="226.1" r="3.9"/>
	<circle class="st26" cx="316.4" cy="221.1" r="1.9"/>
</g>
<g id="eyebrows_and_eyelashes">
	<path class="st27" d="M272.5,208c0,0,11.1-20,18.5-24.2s9.3-4.5,9.3-4.5s8.9-2.9,20.5,5.2c0,0-19.5-5.9-29.1,4.6
		S272.5,208,272.5,208z"/>
	<path class="st27" d="M219.9,217.4c0,0-20.4-14.1-33.3-12.5c-12.9,1.6-15.3,7.3-15.3,7.3l-1.2,5.2c0,0,5.2-7.4,18.1-7.6
		C200.9,209.6,219.9,217.4,219.9,217.4z"/>
	<path d="M291.2,236.9c0,0-1.5-16.4,6-24.6c0,0,7.4-9.5,18.4-10.9c0,0,15.2-4.6,15.4-6.1c0,0,0.1,6.6-7.2,13.6c0,0,6.2,0.4,8.1-2.5
		c0,0,1.8,7.8-10.1,10.6c0,0-11.4-2.5-15.5,3.8L291.2,236.9z"/>
	<path d="M230.7,256c0,0-7.4-17.5-24.8-19.8c0,0-11.5-0.9-17.8,3.8c0,0-10.8,3.9-12.6,2.6c-1.8-1.2,2,6.1,13.4,6.9
		c0,0-1.6,3-8.5,2.9c0,0,3.2,4.2,8.4,3.6c5.1-0.6,9.8-3,9.8-3S214.3,248.7,230.7,256z"/>
</g>
<g id="chokers">
	<path class="st20" d="M270.7,355.5c0,0-6-12.2,4-14.8c0,0,33.2,14.5,54.8,1.2c0,0,11.7-2.9,7,13.5
		C336.5,355.5,311,370.7,270.7,355.5z"/>
	<path class="st28" d="M268.7,372.7c0,0-4.8-12.5,3.5-13.2c0,0,33.5,13.5,62.5,0c0,0,9.2-1.8,5,12.2
		C339.7,371.7,306.5,389.5,268.7,372.7z"/>
	<path class="st29" d="M276.1,345.7c0,0,2.5,3.3,18.8,2.5"/>
	<path class="st30" d="M279,366.2c0,0,18.8,6.2,32.8,2.2"/>
</g>
<g id="shirt">
	<path class="st31" d="M268.7,372.7c0,0-25.5,78.5-22.5,113.5c0,0,76.5-27,118.5,28l-23.2-133.3
		C341.5,380.9,289.7,445.7,268.7,372.7z"/>
</g>
<g id="bracelets">
	<path class="st28" d="M87.2,481.4c0,0,7.2-12,12.7-12s9.8-1.7,11,6c0,0-12.7,3.5-14.8,19.8c-2.2,16.3-0.2,27.3-0.2,27.3
		s2.5,14.7,13.8,18.5c0,0,7.6,2.2,16.3-15.1c0,0,4,17.8-6.8,23.5c-10.8,5.7-20,3.7-20,3.7S69.5,536.6,87.2,481.4z"/>
	<path class="st28" d="M64.2,492.1c0,0,7.8-18,17.4-17.2c9.6,0.9,5.6,6.5,5.6,6.5s-16,10.8-13.5,40c0,0-0.8,13.2,2.4,21.7
		s7.6,13.7,7.6,13.7s14.8-1.2,8.2,10c0,0-3.5,3.3-8,2.3s-11.7-5.8-11.7-5.8s-12.7-19.8-11.5-37.5C60.7,525.7,59.2,500.9,64.2,492.1z
		"/>
	<path class="st28" d="M454.2,539.6c0,0-5.4-5.9-9.6-5.4c0,0-1.1-6.9,6.1-6.9s11,3.1,11,3.1s11,9.2,11.5,31.1s-4,34.9-4,34.9
		s-8.6,19-22.8,15.8s-16.9-13-16.9-13s-1.4-12.6,0-17s4.3,8.5,4.3,8.5s5.8,8.6,12.6,8.1s12.1-15.6,12.1-15.6s3.9-21.6,0.6-32.9
		S454.2,539.6,454.2,539.6z"/>
	<path class="st28" d="M467.6,536c0,0,1-8.2,5.7-7.2s9,3,9,3s7.9,8.6,10.6,20.1s3,31.4,3,31.4s-3,29.9-9.5,33.2c0,0-4.6,8.9-14,10.6
		s-9.9-6.5-9.9-6.5s0.5-16.8,6.5-8c6,8.8,11.9-19.5,11.9-19.5s3-31.8-1.7-41.6S467.6,536,467.6,536z"/>
</g>
<g id="ball_insides">
	<ellipse transform="matrix(0.5 -0.866 0.866 0.5 -344.4395 457.9121)" class="st32" cx="224.3" cy="527.2" rx="22" ry="8.3"/>
	<path class="st33" d="M260.8,514.2c0,0,9.2-13.3,3.5,1.4c-5.8,14.6,15,11.8,15,11.8s8.8-1.5,8.4-8.6c-0.4-7.1-1.9-11.6-1.9-11.6
		s-3.5-12.4,5.9-2.9c9.4,9.5-3.2,24.1-3.2,24.1s-11.5,6.2-22.8,2C254.5,526.1,260.8,514.2,260.8,514.2z"/>
	<path class="st32" d="M293.2,654.5c0,0,78,11.4,79.3-75.2C372.5,579.2,365.2,649.7,293.2,654.5z"/>
	<path class="st33" d="M282,588.6c0.3,1.8,1.3,3.5,2.8,4.6c4.8,3.8,14.8,13.4-4.4,15.2c-23.2,2.1-18.3-27-18.3-27
		s17.2-32.2,47.3-8.6c31.2,24.5,0,49.9,0,49.9s-27.6,19.1-51.4,1.2c-19.4-14.6-18.7-28.9-18.1-31.5c0.1-0.6,0,3.7,0,3.1
		c-0.2-4.6,0.3-22.4,16.6-37.2c18.8-17.2,38-17.2,38-17.2s30.7-9.8,45.5,25.5c14.8,35.3-5.7,44.7-5.7,44.7s-7,1.5-3.3-14
		c3.7-15.5,0.3-21.7,0.3-21.7s-8.2-25.8-31.8-25.5c-23.7,0.3-37,19.3-37,19.3s-13.3,10.7-12,22.3c1.3,11.7,7.8,17,7.8,17
		s22.3,17.7,38,8.2c15.7-9.5,0.2-28.4,0.2-28.4S280.1,576.8,282,588.6z"/>
	<circle class="st34" cx="217.7" cy="582" r="1.2"/>
	<circle class="st32" cx="216.1" cy="609.9" r="1.3"/>
	<circle class="st34" cx="244.3" cy="636.7" r="1.2"/>
	<circle class="st34" cx="268.4" cy="642.5" r="1.5"/>
	<circle class="st34" cx="309.3" cy="643.7" r="1.1"/>
	<circle class="st34" cx="327.1" cy="631.1" r="1.2"/>
	<circle class="st34" cx="354.5" cy="604.9" r="1.2"/>
	<circle class="st34" cx="320.4" cy="571.3" r="1.1"/>
	<circle class="st34" cx="299.6" cy="560.1" r="1.2"/>
	<circle class="st34" cx="241.6" cy="568.2" r="1.3"/>
	<circle class="st34" cx="220.8" cy="546.5" r="1.3"/>
	<circle class="st34" cx="251" cy="533.3" r="1.4"/>
	<circle class="st34" cx="277.3" cy="517.7" r="1.4"/>
	<circle class="st34" cx="301.3" cy="500.9" r="1.4"/>
	<ellipse class="st34" cx="314.6" cy="519.9" rx="1.5" ry="1.2"/>
	<circle class="st34" cx="246.7" cy="504.9" r="1.4"/>
	<circle class="st34" cx="285.1" cy="614.1" r="1.4"/>
</g>
<g id="ball_base">
	<path class="st35" d="M227.5,655l2.7-5.5c0,0,63,20.9,115,0l4.3,9.3C349.5,658.7,288.2,679.4,227.5,655z"/>
	<path class="st35" d="M227.5,653h-4.7l-8.1,21.6c0,0,75.4,27.1,146.4,0l-7.9-21.6l-3.8,3.8C349.5,656.7,284.5,681.7,227.5,653z"/>
	<line class="st36" x1="352.3" y1="658.9" x2="354.7" y2="671.2"/>
	<path class="st37" d="M219.5,671.6c0,0,29.7,10.7,52.7,10.3"/>
</g>
<g id="hands">
	<path class="st38" d="M439,534.2c0,0,13.7,27.5-7.3,49.1l-15.2-7.1c0,0-33,2.2-38.5,0c0,0-37-7.8-41.5-14.5l37-0.5
		c0,0,2-0.5-0.2-1.1l-32.8-2.1c0,0-24.3-5.2-20.5-9.5c0,0,4.8-1.5,36.5-3l4.2-0.2c0,0,3.7-1-0.2-1.1s-13-0.1-13-0.1l-27.8,0.7
		c0,0-16.7-0.3,0-6c0,0,17.1-7.7,23.7-7.3l20.1-3L335,528c0,0-26.4-5.1,0.8-7.1l29-5.4c0,0,11.5-2.1,21.6,2.9s41.1,15.6,41.1,15.6
		L439,534.2z"/>
	<path class="st38" d="M133.5,515.7c0,0-2.8,5.2-4.2,0c0,0-20.8-21.7-5-40.8c0,0,34.2-15.9,43-14.2c0,0,5.5-2.4,22-1.8
		c0,0,14-1.4,17.2-2.9c0,0,11.8-2.5,4.2,6.5c0,0-3.8,6-24.5,9c0,0-1.8,0.9,0.4,1.3s15.1,0.8,15.1,0.8l12.1,1.4
		c0,0,20.8,8.9,25.1,13.5s4.9,6.4,4.9,6.4s-7.3,1-14.2-1.6c-6.8-2.6-16.3-5.9-16.3-5.9l-29.8-1.2c0,0-5.4-0.1-0.1,1.7
		c5.3,1.8,10.2,4,10.2,4l15.8,6c0,0,31.3,6.2,33.6,13c2.2,6.7-41.4-0.2-41.4-0.2l-22.8-7.2c0,0-3.7-0.5-0.8,1.6
		c2.9,2.1,17.8,12.1,17.8,12.1s23.7,4.3,27.4,11.6c0,0-4.8,1.4-28.9,0.7L167.8,517c0,0-4.3-3-1.4,1.6c2.9,4.6,10.4,13.2,10.4,13.2
		s24.5,3.7,25,8.7c0,0-5.1,4.7-29.9,1.3L133.5,515.7z"/>
</g>
<g id="rings">
	<path class="st28" d="M363.3,528.6c0,0-1.4-11.6,0-12.4s3.1-1,3.1-1s1.9,11.1,0,12.4C364.6,528.9,363.3,528.6,363.3,528.6z"/>
	<path class="st28" d="M174.4,520.1c0,0-4,1.7-5.2-2.4c-1.2-4.2,7.3-12.3,7.3-12.3s5-2.5,6.3,2.9
		C182.7,508.3,174.4,515.2,174.4,520.1z"/>
	<path class="st28" d="M360.3,545.6c0,0,2.1-3.8,5.6-1.2c3.5,2.5,1.7,14.2,1.7,14.2s-2.4,5-6.7,1.5
		C360.9,560,363.4,549.4,360.3,545.6z"/>
</g>
</svg>
